<svg xmlns="http://www.w3.org/2000/svg" xmlns:xlink="http://www.w3.org/1999/xlink" width="20.417" height="25.875" viewBox="0 0 20.417 25.875">
  <defs>
    <clipPath id="clip-path">
      <rect id="Retângulo_169" data-name="Retângulo 169" width="20.417" height="25.875" transform="translate(0 0)" fill="#08f"/>
    </clipPath>
  </defs>
  <g id="Grupo_267" data-name="Grupo 267" transform="translate(0 0)">
    <g id="Grupo_267-2" data-name="Grupo 267" transform="translate(0 0)" clip-path="url(#clip-path)">
      <path id="Caminho_1410" data-name="Caminho 1410" d="M15.646,25.813a1.51,1.51,0,0,1-.925-1.086c-.058-.307.012-.52.453-1.372A21.5,21.5,0,0,0,17.726,12.9a21.163,21.163,0,0,0-2.385-10.07A10.478,10.478,0,0,1,14.677,1.3,1.561,1.561,0,0,1,15.32.185,1.454,1.454,0,0,1,16.913.3a7.534,7.534,0,0,1,.815,1.338A25.426,25.426,0,0,1,20.19,9.374a30.369,30.369,0,0,1,.1,6.435A25.3,25.3,0,0,1,17.959,23.7c-.728,1.507-1.186,2.127-1.568,2.127a1.129,1.129,0,0,0-.277.043,1.146,1.146,0,0,1-.467-.053m-4.952-2.591a1.357,1.357,0,0,1-.912-1.552c.045-.142.345-.795.666-1.451A16.192,16.192,0,0,0,12.1,11.537,15.673,15.673,0,0,0,10.356,5.4c-.728-1.488-.762-1.719-.338-2.318A1.385,1.385,0,0,1,11.952,2.9a17.844,17.844,0,0,1,1.942,4.056,19.271,19.271,0,0,1-.631,13.6c-.954,2.24-1.623,2.933-2.569,2.658M5.587,20.6a1.543,1.543,0,0,1-.824-1.013c-.056-.255.04-.538.507-1.484A10.885,10.885,0,0,0,5.327,7.886C4.59,6.4,4.574,6.1,5.2,5.512a.981.981,0,0,1,.87-.341c.724,0,1.1.364,1.747,1.693a12.9,12.9,0,0,1,1.4,6.091,12.392,12.392,0,0,1-1.448,6.1c-.609,1.234-.91,1.56-1.52,1.644a1.426,1.426,0,0,1-.658-.1M.822,18.148a1.606,1.606,0,0,1-.774-.922c-.118-.412-.022-.739.447-1.509A4.4,4.4,0,0,0,1.237,12.9,4.4,4.4,0,0,0,.5,10.087,5.528,5.528,0,0,1,.04,9.194,1.364,1.364,0,0,1,1.12,7.6c.619-.116,1.044.16,1.613,1.048a8.025,8.025,0,0,1,0,8.559c-.581.9-1.23,1.218-1.91.936" transform="translate(0 0)" fill="#08f" fill-rule="evenodd"/>
    </g>
  </g>
</svg>
