<svg id="Logo_Reconhece_vc" xmlns="http://www.w3.org/2000/svg" width="89" height="10.07" viewBox="0 0 89 10.07">
  <g id="Grupo_54" data-name="Grupo 54">
    <path id="Caminho_11" data-name="Caminho 11" d="M-.024,418.444c-.085-.88,1.5-.88,1.414,0l.024.905A2.557,2.557,0,0,1,3.779,417.7a.776.776,0,0,1,.829.769.791.791,0,0,1-.829.806c-1.39,0-2.219.868-2.219,2.555v2.517a.746.746,0,0,1-.792.769.752.752,0,0,1-.792-.769v-5.9Z" transform="translate(0.027 -415.145)" fill="#00ace5"/>
    <path id="Caminho_12" data-name="Caminho 12" d="M47.5,418.871a3.033,3.033,0,0,1,1.073,2.269.644.644,0,0,1-.695.719H42.621a2.289,2.289,0,0,0,2.414,2.17,2.834,2.834,0,0,0,.878-.149,2.593,2.593,0,0,0,1.1-.694.767.767,0,0,1,.463-.186.611.611,0,0,1,.646.62.83.83,0,0,1-.329.608,3.785,3.785,0,0,1-2.865,1.153,3.916,3.916,0,0,1-2.816-1.066A3.581,3.581,0,0,1,41,421.661a3.489,3.489,0,0,1,1.146-2.666,3.935,3.935,0,0,1,2.816-1.1A3.5,3.5,0,0,1,47.5,418.871Zm-.451,2a2.2,2.2,0,0,0-2.121-1.823,2.279,2.279,0,0,0-2.292,1.835h4.413Z" transform="translate(-35.999 -415.312)" fill="#00ace5"/>
    <path id="Caminho_13" data-name="Caminho 13" d="M118.59,418.516a.823.823,0,0,1,.414.682.711.711,0,0,1-.731.719.891.891,0,0,1-.488-.186,2.476,2.476,0,0,0-1.536-.521,2.267,2.267,0,0,0-1.694.682,2.19,2.19,0,0,0-.683,1.649,2.265,2.265,0,0,0,.683,1.674,2.345,2.345,0,0,0,1.694.657,2.408,2.408,0,0,0,1.621-.6.892.892,0,0,1,.475-.186.681.681,0,0,1,.707.707.8.8,0,0,1-.329.62,3.768,3.768,0,0,1-2.5.868,3.916,3.916,0,0,1-2.816-1.066,3.581,3.581,0,0,1-1.109-2.654,3.489,3.489,0,0,1,1.146-2.666,3.972,3.972,0,0,1,2.84-1.1A3.608,3.608,0,0,1,118.59,418.516Z" transform="translate(-98.608 -415.23)" fill="#00ace5"/>
    <path id="Caminho_15" data-name="Caminho 15" d="M257.69,418.518a3.131,3.131,0,0,1,.8,2.307v3.534a.793.793,0,0,1-1.585,0v-3.038c0-1.463-.731-2.2-1.78-2.2-1.158,0-1.975.756-1.975,2.331v2.9a.793.793,0,0,1-1.585,0v-5.866c-.1-.943,1.572-.943,1.475,0v.645a2.877,2.877,0,0,1,2.609-1.439A2.74,2.74,0,0,1,257.69,418.518Z" transform="translate(-220.898 -415.145)" fill="#00ace5"/>
    <path id="Caminho_16" data-name="Caminho 16" d="M330.319,400.473a3.131,3.131,0,0,1,.8,2.307v3.534a.793.793,0,0,1-1.585,0v-3.038c0-1.463-.731-2.2-1.78-2.2-1.146,0-1.963.732-1.975,2.207v3.026a.793.793,0,0,1-1.585,0v-8.458a.793.793,0,0,1,1.585,0v3.125a2.706,2.706,0,0,1,2.5-1.327A2.74,2.74,0,0,1,330.319,400.473Z" transform="translate(-284.678 -397.1)" fill="#00ace5"/>
    <path id="Caminho_17" data-name="Caminho 17" d="M399.7,418.871a3.033,3.033,0,0,1,1.073,2.269.644.644,0,0,1-.695.719h-5.254a2.289,2.289,0,0,0,2.414,2.17,2.834,2.834,0,0,0,.878-.149,2.593,2.593,0,0,0,1.1-.694.767.767,0,0,1,.463-.186.611.611,0,0,1,.646.62.874.874,0,0,1-.329.608,3.785,3.785,0,0,1-2.865,1.153,3.916,3.916,0,0,1-2.816-1.066,3.581,3.581,0,0,1-1.109-2.654,3.489,3.489,0,0,1,1.146-2.666,3.934,3.934,0,0,1,2.816-1.1A3.5,3.5,0,0,1,399.7,418.871Zm-.451,2a2.2,2.2,0,0,0-2.121-1.823,2.279,2.279,0,0,0-2.292,1.835h4.413Z" transform="translate(-345.267 -415.312)" fill="#00ace5"/>
    <path id="Caminho_18" data-name="Caminho 18" d="M470.878,418.516a.823.823,0,0,1,.414.682.711.711,0,0,1-.731.719.891.891,0,0,1-.488-.186,2.468,2.468,0,0,0-1.524-.521,2.267,2.267,0,0,0-1.694.682,2.19,2.19,0,0,0-.683,1.649,2.265,2.265,0,0,0,.683,1.674,2.345,2.345,0,0,0,1.694.657,2.408,2.408,0,0,0,1.621-.6.892.892,0,0,1,.475-.186.681.681,0,0,1,.707.707.833.833,0,0,1-.329.62,3.768,3.768,0,0,1-2.5.868,3.916,3.916,0,0,1-2.816-1.066,3.581,3.581,0,0,1-1.109-2.654,3.489,3.489,0,0,1,1.146-2.666,3.972,3.972,0,0,1,2.84-1.1A3.6,3.6,0,0,1,470.878,418.516Z" transform="translate(-407.964 -415.23)" fill="#00ace5"/>
    <path id="Caminho_19" data-name="Caminho 19" d="M532.3,418.871a3.033,3.033,0,0,1,1.073,2.269.644.644,0,0,1-.695.719h-5.254a2.289,2.289,0,0,0,2.414,2.17,2.833,2.833,0,0,0,.878-.149,2.593,2.593,0,0,0,1.1-.694.767.767,0,0,1,.463-.186.611.611,0,0,1,.646.62.874.874,0,0,1-.329.608,3.785,3.785,0,0,1-2.865,1.153,3.916,3.916,0,0,1-2.816-1.066,3.581,3.581,0,0,1-1.109-2.654,3.489,3.489,0,0,1,1.146-2.666,3.935,3.935,0,0,1,2.816-1.1A3.5,3.5,0,0,1,532.3,418.871Zm-.439,2a2.2,2.2,0,0,0-2.121-1.823,2.279,2.279,0,0,0-2.292,1.835h4.413Z" transform="translate(-461.703 -415.312)" fill="#00ace5"/>
    <path id="Caminho_20" data-name="Caminho 20" d="M595.927,462a1.078,1.078,0,0,1,1.487,0,1.023,1.023,0,0,1,0,1.451,1.078,1.078,0,0,1-1.487,0A1.023,1.023,0,0,1,595.927,462Z" transform="translate(-523.017 -453.689)" fill="#00ace5"/>
    <path id="Caminho_21" data-name="Caminho 21" d="M613,418.3a.806.806,0,0,1,.78.608l1.987,4.725,1.987-4.762a.78.78,0,0,1,.78-.57.743.743,0,0,1,.756.732.918.918,0,0,1-.085.384l-2.389,5.419a1.12,1.12,0,0,1-2.158,0l-2.365-5.357a.811.811,0,0,1-.1-.409A.749.749,0,0,1,613,418.3Z" transform="translate(-537.572 -415.671)" fill="#00ace5"/>
    <path id="Caminho_22" data-name="Caminho 22" d="M680.978,418.516a.823.823,0,0,1,.414.682.711.711,0,0,1-.731.719.891.891,0,0,1-.488-.186,2.468,2.468,0,0,0-1.524-.521,2.267,2.267,0,0,0-1.694.682,2.19,2.19,0,0,0-.683,1.649,2.265,2.265,0,0,0,.683,1.674,2.345,2.345,0,0,0,1.694.657,2.408,2.408,0,0,0,1.621-.6.892.892,0,0,1,.475-.186.681.681,0,0,1,.707.707.833.833,0,0,1-.329.62,3.768,3.768,0,0,1-2.5.868,3.916,3.916,0,0,1-2.816-1.066,3.581,3.581,0,0,1-1.109-2.654,3.489,3.489,0,0,1,1.146-2.666,3.972,3.972,0,0,1,2.84-1.1A3.6,3.6,0,0,1,680.978,418.516Z" transform="translate(-592.453 -415.23)" fill="#00ace5"/>
  </g>
  <path id="Caminho_3" data-name="Caminho 3" d="M232.915,119.806c-.084-.26-.2-.365-.407-.367a.3.3,0,0,0-.2.068.084.084,0,0,1-.125,0,2.459,2.459,0,0,0-.75-.45c-.053-.019-.063-.039-.039-.092.292-.642.586-1.284.872-1.926.048-.109.1-.061.154-.024a.693.693,0,0,0,.769.063,1.966,1.966,0,0,1,.239-.08c.26-.092.521-.185.781-.275a.622.622,0,0,1,.54.036,5.187,5.187,0,0,1-.865.355.628.628,0,0,0-.349.263c-.118.2-.263.377-.4.562-.171.238-.113.416.169.5a.506.506,0,0,0,.427-.049,1.821,1.821,0,0,0,.492-.421.228.228,0,0,1,.2-.1c.164,0,.328-.007.492-.019a.223.223,0,0,1,.188.078c.518.513,1,1.061,1.514,1.579a.82.82,0,0,1,.1.134.25.25,0,0,1,0,.333.3.3,0,0,1-.39.075,1.561,1.561,0,0,1-.371-.343c-.19-.2-.376-.409-.566-.611-.027-.029-.063-.085-.106-.039s.01.073.036.1l.622.676a1.611,1.611,0,0,1,.13.158.288.288,0,0,1,.017.348.326.326,0,0,1-.374.122.5.5,0,0,1-.188-.126c-.178-.18-.359-.358-.54-.538-.027-.027-.06-.073-.1-.036s0,.08.029.109c.178.18.359.358.537.538a.214.214,0,0,1,.065.241.248.248,0,0,1-.2.185.352.352,0,0,1-.272-.1c-.2-.185-.393-.37-.59-.552-.029-.027-.063-.085-.108-.039s.019.075.046.1c.174.161.352.319.525.482.1.095.092.178-.029.246a.272.272,0,0,1-.241.019c-.072-.029-.106-.058-.077-.151a.277.277,0,0,0-.325-.392c-.051,0-.077,0-.077-.056,0-.258-.243-.389-.506-.3-.039.012-.063.032-.087-.029A.445.445,0,0,0,232.915,119.806Z" transform="translate(-209.29 -112.685)" fill="#00ace5"/>
  <path id="Caminho_4" data-name="Caminho 4" d="M184,104.971c.171.319.323.611.5.885a4.45,4.45,0,0,0,2.446,1.9,4.618,4.618,0,0,0,1.5.2,3.777,3.777,0,0,0,3.569-2.943c.019-.09,0-.1-.075-.078-.243.054-.241.051-.294-.2q-.217-1.051-.443-2.1c-.019-.09-.01-.124.087-.151.328-.083.706-.18,1.032-.272.06-.017.048-.027.077.051a5.821,5.821,0,0,1,.337,1.189,4.952,4.952,0,0,1,.022,1.194,4.423,4.423,0,0,1-7.185,2.994,4.2,4.2,0,0,1-1.547-2.522A1.189,1.189,0,0,1,184,104.971Z" transform="translate(-163.051 -98.578)" fill="#00ace5"/>
  <path id="Caminho_5" data-name="Caminho 5" d="M307.363,123a3.1,3.1,0,0,1,.75.124,2.187,2.187,0,0,0,.88,0c.178-.024.354-.056.53-.083.053-.007.087,0,.1.071.133.645.268,1.289.41,1.931.022.1-.017.124-.1.134a1.039,1.039,0,0,0-.658.3c-.207.207-.222.2-.422,0-.48-.489-.937-1-1.422-1.481a.307.307,0,0,0-.27-.109c-.2.022-.407,0-.612.024a.162.162,0,0,0-.118.068,1.937,1.937,0,0,1-.484.448.429.429,0,0,1-.422.036c-.13-.054-.154-.126-.075-.243s.171-.234.255-.35a2.34,2.34,0,0,0,.147-.221.549.549,0,0,1,.309-.251,5.743,5.743,0,0,0,.754-.3A1.157,1.157,0,0,1,307.363,123Z" transform="translate(-281.531 -118.859)" fill="#00ace5"/>
  <path id="Caminho_6" data-name="Caminho 6" d="M311.2,259.181a.373.373,0,0,1-.2-.029.235.235,0,0,1-.12-.4c.128-.168.255-.348.508-.326a.227.227,0,0,1,.21.134.251.251,0,0,1-.01.282q-.1.124-.2.255A.174.174,0,0,1,311.2,259.181Z" transform="translate(-286.811 -250.99)" fill="#00ace5"/>
  <path id="Caminho_7" data-name="Caminho 7" d="M285.353,246.32a.443.443,0,0,1-.41-.338.141.141,0,0,1,.029-.114c.137-.136.265-.294.487-.285a.392.392,0,0,1,.169.051.234.234,0,0,1,.094.392A.67.67,0,0,1,285.353,246.32Z" transform="translate(-261.56 -238.46)" fill="#00ace5"/>
  <path id="Caminho_8" data-name="Caminho 8" d="M264.858,233.381a.428.428,0,0,1-.33.319.379.379,0,0,1-.328-.3.36.36,0,0,1,.337-.3A.329.329,0,0,1,264.858,233.381Z" transform="translate(-241.318 -226.28)" fill="#00ace5"/>
  <path id="Caminho_9" data-name="Caminho 9" d="M336.225,273.936a.386.386,0,0,1-.222.314.337.337,0,0,1-.359-.063c-.065-.049-.1-.1-.024-.178s.159-.18.243-.265a.2.2,0,0,1,.243-.032C336.193,273.743,336.229,273.812,336.225,273.936Z" transform="translate(-310.976 -265.878)" fill="#00ace5"/>
  <path id="Caminho_10" data-name="Caminho 10" d="M189.484,1.987a1.63,1.63,0,0,0-.108-.153A4.412,4.412,0,0,0,186.8.124c-.212-.051-.429-.083-.644-.124h-.747c-.014.027-.041.022-.063.027a5.211,5.211,0,0,0-.612.112,4.482,4.482,0,0,0-3.369,4.612c0,.068,0,.083.048.1.284.117.6.263.889.387.048.022.077.029.106-.036q.474-1.08.959-2.153c.029-.066.019-.088-.046-.114-.229-.095-.456-.2-.684-.292-.084-.034-.1-.068-.048-.148a3.536,3.536,0,0,1,.839-.958,4.22,4.22,0,0,1,4-.752,5.178,5.178,0,0,1,1.911,1.1,1.588,1.588,0,0,1,.217.209A.985.985,0,0,0,189.484,1.987Z" transform="translate(-160.478 1.149)" fill="#00ace5"/>
</svg>
