<svg xmlns="http://www.w3.org/2000/svg" width="27.763" height="24" viewBox="0 0 27.763 24">
  <g id="diners" transform="translate(-2 -3)">
    <path id="Caminho_1385" data-name="Caminho 1385" d="M13.946,26.616A11.583,11.583,0,1,0,2.363,15.032,11.583,11.583,0,0,0,13.946,26.616Z" transform="translate(0.141 0.174)" fill="#fff"/>
    <path id="Caminho_1386" data-name="Caminho 1386" d="M14.1,27A12.021,12.021,0,0,1,2,15.1,11.842,11.842,0,0,1,14.1,3h3.11c6.592,0,12.548,4.944,12.548,12.1C29.763,21.649,23.77,27,17.215,27Zm0-23a11.051,11.051,0,1,0,.024,0Zm-2.469,17.48V8.483a6.957,6.957,0,0,0,0,12.992Zm9.456-6.49a6.969,6.969,0,0,0-4.47-6.508v13a6.969,6.969,0,0,0,4.47-6.5Z" fill="#004a98"/>
  </g>
</svg>
