<svg id="Botão_busca_mobile" xmlns="http://www.w3.org/2000/svg" xmlns:xlink="http://www.w3.org/1999/xlink" width="50" height="35" viewBox="0 0 50 35">
  <defs>
    <clipPath id="clip-path">
      <rect id="Botão" width="50" height="35" rx="6" fill="#08f"/>
    </clipPath>
    <radialGradient id="radial-gradient" cx="0.5" cy="0.5" r="0.5" gradientUnits="objectBoundingBox">
      <stop offset="0" stop-color="#00ace5" stop-opacity="0"/>
      <stop offset="1" stop-color="#00ace5" stop-opacity="0.302"/>
    </radialGradient>
  </defs>
  <rect id="Botão-2" data-name="Botão" width="50" height="35" rx="6" fill="#00ace5"/>
  <g id="Icone_lupa" transform="translate(13 5)">
    <path id="_Color" data-name=" ↳Color" d="M22.871,25h0l-7.147-7.131v-1.13l-.386-.4a9.3,9.3,0,1,1,1-1l.4.386h1.13L25,22.871,22.872,25ZM9.291,2.859a6.432,6.432,0,1,0,6.432,6.432A6.44,6.44,0,0,0,9.291,2.859Z" transform="translate(0 0)" fill="#fff"/>
  </g>
  <g id="Grupo_de_máscara_9" data-name="Grupo de máscara 9" opacity="0" clip-path="url(#clip-path)">
    <rect id="Botão-3" data-name="Botão" width="50" height="35" rx="6" fill="#08f"/>
    <circle id="Elipse_15" data-name="Elipse 15" cx="20" cy="20" r="20" transform="translate(5 -2)" fill="url(#radial-gradient)"/>
  </g>
</svg>
