<svg id="Icone_perfil" xmlns="http://www.w3.org/2000/svg" width="25" height="25" viewBox="0 0 25 25">
  <path id="Caminho_1041" data-name="Caminho 1041" d="M16,9a4,4,0,1,1-4-4A4,4,0,0,1,16,9Z" transform="translate(0.5 -0.143)" fill="#00ace5" fill-rule="evenodd"/>
  <path id="Caminho_1042" data-name="Caminho 1042" d="M13.5,1A12.5,12.5,0,1,0,26,13.5,12.5,12.5,0,0,0,13.5,1ZM3.273,13.5a10.183,10.183,0,0,0,2.168,6.3A10.229,10.229,0,0,1,21.632,19.7a10.227,10.227,0,1,0-18.36-6.2Z" transform="translate(-1 -1)" fill="#00ace5" fill-rule="evenodd"/>
</svg>
