<svg xmlns="http://www.w3.org/2000/svg" xmlns:xlink="http://www.w3.org/1999/xlink" width="40" height="12.918" viewBox="0 0 40 12.918">
  <defs>
    <linearGradient id="linear-gradient" y1="0.5" x2="1" y2="0.5" gradientUnits="objectBoundingBox">
      <stop offset="0" stop-color="#0a0141"/>
      <stop offset="1" stop-color="#0f218b"/>
    </linearGradient>
  </defs>
  <path id="visa" d="M17.076.689,11.84,13.182H8.424L5.847,3.212a1.367,1.367,0,0,0-.768-1.1A13.487,13.487,0,0,0,1.89,1.052L1.966.689h5.5A1.506,1.506,0,0,1,8.957,1.962l1.361,7.23,3.364-8.5h3.394ZM30.464,9.1c.014-3.3-4.559-3.479-4.528-4.953.01-.448.437-.924,1.371-1.046a6.1,6.1,0,0,1,3.187.559l.568-2.649A8.684,8.684,0,0,0,28.038.46c-3.195,0-5.443,1.7-5.462,4.13-.021,1.8,1.605,2.8,2.83,3.4C26.665,8.6,27.087,9,27.082,9.543c-.009.839-1,1.209-1.935,1.223a6.761,6.761,0,0,1-3.32-.789l-.585,2.738a9.8,9.8,0,0,0,3.595.664c3.4,0,5.615-1.677,5.626-4.275M38.9,13.182h2.99L39.281.689H36.522a1.468,1.468,0,0,0-1.375.916L30.3,13.182h3.393l.675-1.866h4.146ZM35.293,8.756l1.7-4.692.98,4.692ZM21.7.689,19.022,13.182H15.789L18.463.689Z" transform="translate(-1.89 -0.46)" fill="url(#linear-gradient)"/>
</svg>
