<svg xmlns="http://www.w3.org/2000/svg" width="22" height="25" viewBox="0 0 22 25">
  <path id="home-alt" d="M6.667,26.121A3.562,3.562,0,0,1,3,22.674V11.184a1.1,1.1,0,0,1,.006-.115H3A2.422,2.422,0,0,1,3.777,9.3l7.63-7.173a3.834,3.834,0,0,1,5.185,0L24.223,9.3A2.422,2.422,0,0,1,25,11.068h-.006a1.091,1.091,0,0,1,.006.115v11.49a3.562,3.562,0,0,1-3.667,3.447Zm8.2-22.365,7.691,7.231V22.674a1.187,1.187,0,0,1-1.222,1.149H17.667V18.078A3.562,3.562,0,0,0,14,14.631a3.562,3.562,0,0,0-3.667,3.447v5.745H6.667a1.187,1.187,0,0,1-1.222-1.149V10.987l7.691-7.231A1.278,1.278,0,0,1,14.864,3.756Z" transform="translate(-3 -1.121)" fill="#5d5d5d" fill-rule="evenodd"/>
</svg>
