<svg id="Grupo_121" data-name="Grupo 121" xmlns="http://www.w3.org/2000/svg" width="28.927" height="28.927" viewBox="0 0 28.927 28.927">
  <path id="Caminho_1359" data-name="Caminho 1359" d="M8.623,6.982a1.612,1.612,0,0,0,0,3.224H21.4a1.612,1.612,0,0,0,0-3.224Z" transform="translate(-0.562 -0.583)" fill="#08f"/>
  <path id="Caminho_1360" data-name="Caminho 1360" d="M7.016,12.609A1.611,1.611,0,0,1,8.623,11H21.4a1.612,1.612,0,0,1,0,3.224H8.623A1.611,1.611,0,0,1,7.016,12.609Z" transform="translate(-0.562 1.855)" fill="#08f"/>
  <path id="Caminho_1361" data-name="Caminho 1361" d="M8.632,15.012a1.612,1.612,0,0,0,0,3.224H21.409a1.612,1.612,0,0,0,0-3.224Z" transform="translate(-0.557 4.292)" fill="#08f"/>
  <path id="Caminho_1362" data-name="Caminho 1362" d="M3,7.821A4.821,4.821,0,0,1,7.821,3H27.106a4.821,4.821,0,0,1,4.821,4.821V27.106a4.821,4.821,0,0,1-4.821,4.821H7.821A4.821,4.821,0,0,1,3,27.106ZM7.821,6.214H27.106a1.607,1.607,0,0,1,1.607,1.607V27.106a1.607,1.607,0,0,1-1.607,1.607H7.821a1.607,1.607,0,0,1-1.607-1.607V7.821A1.607,1.607,0,0,1,7.821,6.214Z" transform="translate(-3 -3)" fill="#08f" fill-rule="evenodd"/>
</svg>
