<svg xmlns="http://www.w3.org/2000/svg" width="28" height="21" viewBox="0 0 28 21">
  <path id="Caminho_1351" data-name="Caminho 1351" d="M4.667,3A4.667,4.667,0,0,0,0,7.667V19.333A4.667,4.667,0,0,0,4.667,24H23.333A4.667,4.667,0,0,0,28,19.333V7.667A4.667,4.667,0,0,0,23.333,3ZM23.333,5.333H4.667A2.333,2.333,0,0,0,2.333,7.667v8.167H25.667V7.667A2.333,2.333,0,0,0,23.333,5.333Zm2.333,12.833H2.333v1.167a2.333,2.333,0,0,0,2.333,2.333H23.333a2.333,2.333,0,0,0,2.333-2.333Z" transform="translate(0 -3)" fill="#08f" fill-rule="evenodd"/>
</svg>
