<svg xmlns="http://www.w3.org/2000/svg" width="22" height="22" viewBox="0 0 22 22">
  <path id="Caminho_1182" data-name="Caminho 1182" d="M9,2A1,1,0,1,1,8,1,1,1,0,0,1,9,2Zm4,0a1,1,0,1,1-1-1A1,1,0,0,1,13,2Zm3,1a1,1,0,1,0-1-1A1,1,0,0,0,16,3ZM9,22a1,1,0,1,1-1-1A1,1,0,0,1,9,22Zm4,0a1,1,0,1,1-1-1A1,1,0,0,1,13,22Zm3,1a1,1,0,1,0-1-1A1,1,0,0,0,16,23Zm7-7a1,1,0,1,0-1,1A1,1,0,0,0,23,16Zm0-4a1,1,0,1,0-1,1A1,1,0,0,0,23,12ZM22,7a1,1,0,1,1-1,1A1,1,0,0,1,22,7ZM2,15a1,1,0,1,1-1,1A1,1,0,0,1,2,15Zm0-4a1,1,0,1,1-1,1A1,1,0,0,1,2,11ZM3,8A1,1,0,1,0,2,9,1,1,0,0,0,3,8ZM17,6H7A1,1,0,0,0,6,7V17a1,1,0,0,0,1,1H17a1,1,0,0,0,1-1V7A1,1,0,0,0,17,6ZM7,4A3,3,0,0,0,4,7V17a3,3,0,0,0,3,3H17a3,3,0,0,0,3-3V7a3,3,0,0,0-3-3Zm7,6H10v4h4ZM8,8v8h8V8Z" transform="translate(-1 -1)" fill="#fff" fill-rule="evenodd"/>
</svg>
