<svg xmlns="http://www.w3.org/2000/svg" width="22" height="23.204" viewBox="0 0 22 23.204">
  <g id="Grupo_4" data-name="Grupo 4" transform="translate(-2663 -3904)">
    <path id="Caminho_1356" data-name="Caminho 1356" d="M9.5,7.02l1.943-2.014,2.92,3.028L18.254,4,20.2,6.012,16.806,9.525H23.25A2.8,2.8,0,0,1,26,12.376v9.978A2.8,2.8,0,0,1,23.25,25.2H6.75A2.8,2.8,0,0,1,4,22.354V12.376A2.8,2.8,0,0,1,6.75,9.525h5.166Zm13.75,5.356H6.75v9.978h16.5Z" transform="translate(2659 3900)" fill="#fff" fill-rule="evenodd"/>
    <path id="Caminho_1357" data-name="Caminho 1357" d="M8,19.876h8v1H8Z" transform="translate(2662 3906.328)" fill="#fff"/>
  </g>
</svg>
