<svg xmlns="http://www.w3.org/2000/svg" width="22" height="17" viewBox="0 0 22 17">
  <g id="Grupo_6" data-name="Grupo 6" transform="translate(-2618 -3999)">
    <g id="Grupo_5" data-name="Grupo 5">
      <path id="readme" d="M4,5.5H9a2,2,0,0,1,2,2v9a1,1,0,0,1-1,1H4a1,1,0,0,1-1-1V6.5A1,1,0,0,1,4,5.5Zm10,14a3,3,0,0,1-1-.171V19.5a1,1,0,0,1-2,0v-.171a3,3,0,0,1-1,.171H4a3,3,0,0,1-3-3V6.5a3,3,0,0,1,3-3H9a3.99,3.99,0,0,1,3,1.354A3.99,3.99,0,0,1,15,3.5h5a3,3,0,0,1,3,3v10a3,3,0,0,1-3,3Zm-1-12v9a1,1,0,0,0,1,1h6a1,1,0,0,0,1-1V6.5a1,1,0,0,0-1-1H15A2,2,0,0,0,13,7.5Zm-8,0H9v2H5Zm10,0h4v2H15Zm4,3H15v2h4Zm-14,0H9v2H5Zm14,3H15v2h4Zm-14,0H9v2H5Z" transform="translate(2617 3995.5)" fill="#fff" fill-rule="evenodd"/>
    </g>
  </g>
</svg>
