<svg id="Grupo_123" data-name="Grupo 123" xmlns="http://www.w3.org/2000/svg" width="28.927" height="28.927" viewBox="0 0 28.927 28.927">
  <path id="Caminho_1041" data-name="Caminho 1041" d="M18.3,10.15A5.15,5.15,0,1,1,13.15,5,5.15,5.15,0,0,1,18.3,10.15Zm-2.575,0A2.575,2.575,0,1,1,13.15,7.575,2.575,2.575,0,0,1,15.725,10.15Z" transform="translate(1.314 0.322)" fill="#08f" fill-rule="evenodd"/>
  <path id="Caminho_1042" data-name="Caminho 1042" d="M15.464,1A14.464,14.464,0,1,0,29.927,15.464,14.464,14.464,0,0,0,15.464,1ZM3.63,15.464A11.783,11.783,0,0,0,6.138,22.75a11.835,11.835,0,0,1,18.735-.11A11.834,11.834,0,1,0,3.63,15.464ZM15.464,27.3a11.785,11.785,0,0,1-7.458-2.646,9.206,9.206,0,0,1,15.024-.088A11.786,11.786,0,0,1,15.464,27.3Z" transform="translate(-1 -1)" fill="#08f" fill-rule="evenodd"/>
</svg>
