<svg id="Grupo_204" data-name="Grupo 204" xmlns="http://www.w3.org/2000/svg" xmlns:xlink="http://www.w3.org/1999/xlink" width="41.221" height="22" viewBox="0 0 41.221 22">
  <defs>
    <clipPath id="clip-path">
      <rect id="Retângulo_140" data-name="Retângulo 140" width="41.221" height="22" fill="#00aa17"/>
    </clipPath>
  </defs>
  <g id="Grupo_203" data-name="Grupo 203" clip-path="url(#clip-path)">
    <path id="Caminho_1398" data-name="Caminho 1398" d="M40.995,9.876,36.851,3.735a1.321,1.321,0,0,0-1.1-.584H32.427A3.68,3.68,0,0,0,28.791,0H13.064A3.68,3.68,0,0,0,9.44,3.082H0V5.733H9.387V7.314H3.266V9.965H9.387v1.579H6.924V14.2H9.4a3.676,3.676,0,0,0,3.266,3.489,4.465,4.465,0,0,0,8.924.024h5.1a4.465,4.465,0,0,0,8.922,0H39.9a1.325,1.325,0,0,0,1.325-1.325V10.618a1.319,1.319,0,0,0-.227-.741M17.124,19.347a1.82,1.82,0,1,1,1.821-1.82,1.821,1.821,0,0,1-1.821,1.82m10.3-4.29H20.848a4.464,4.464,0,0,0-7.445,0h-.337a1.027,1.027,0,0,1-1.026-1.026V3.677a1.027,1.027,0,0,1,1.026-1.026H28.791a1.027,1.027,0,0,1,1.026,1.026h0v9.582a4.486,4.486,0,0,0-2.4,1.8m3.723,4.29a1.82,1.82,0,1,1,1.818-1.82,1.821,1.821,0,0,1-1.818,1.82m7.426-4.29h-3.7a4.5,4.5,0,0,0-2.361-1.787V5.8h2.544l3.522,5.222Z" fill="#00aa17"/>
  </g>
</svg>
