<svg xmlns="http://www.w3.org/2000/svg" width="17.501" height="25" viewBox="0 0 17.501 25">
  <g id="Icone_localização" transform="translate(0 0)">
    <path id="_Color" data-name=" ↳Color" d="M8.75,25h0a56.815,56.815,0,0,1-4.374-5.663C2.379,16.378,0,12.14,0,8.75A8.753,8.753,0,0,1,14.94,2.561,8.694,8.694,0,0,1,17.5,8.75c0,3.39-2.379,7.628-4.375,10.586A56.815,56.815,0,0,1,8.751,25Zm0-19.375A3.125,3.125,0,1,0,11.876,8.75,3.129,3.129,0,0,0,8.75,5.625Z" transform="translate(0 0)" fill="#00ace5"/>
  </g>
</svg>
