<svg xmlns="http://www.w3.org/2000/svg" width="40" height="15.329" viewBox="0 0 40 15.329">
  <g id="elo" transform="translate(-2 -8)">
    <path id="Caminho_1387" data-name="Caminho 1387" d="M5.618,11.386a4.517,4.517,0,0,1,5.85,3.378l3.092-.631A7.672,7.672,0,0,0,4.618,8.394Z" transform="translate(2.618)" fill="#ffcb05"/>
    <path id="Caminho_1388" data-name="Caminho 1388" d="M4.587,20.444,6.678,18.08a4.508,4.508,0,0,1,0-6.754L4.585,8.962a7.661,7.661,0,0,0,0,11.481Z" transform="translate(0 0.962)" fill="#00a4e0"/>
    <path id="Caminho_1389" data-name="Caminho 1389" d="M11.467,12.285a4.514,4.514,0,0,1-5.849,3.373l-1,2.994a7.675,7.675,0,0,0,9.942-5.732Z" transform="translate(2.617 4.285)" fill="#ef4123"/>
    <path id="Caminho_1390" data-name="Caminho 1390" d="M11.3,17.129a5.489,5.489,0,0,1-.322-.62A4.7,4.7,0,0,1,13.319,10.4a4.706,4.706,0,0,1,4.323.315,4.62,4.62,0,0,1,1.93,2.329c.06.138.111.285.161.41Zm2.818-4.906A2.33,2.33,0,0,0,12.7,14.695l4.243-1.826A2.253,2.253,0,0,0,14.114,12.223ZM17.475,16.2l0,0-.088-.06a2.49,2.49,0,0,1-1.147.961,2.228,2.228,0,0,1-2.459-.247l-.058.088a0,0,0,0,0,0,0L12.642,18.55a4.616,4.616,0,0,0,.856.469,4.458,4.458,0,0,0,3.6-.05,4.434,4.434,0,0,0,2.012-1.675Z" transform="translate(8.584 2.013)" fill="#fff"/>
    <path id="Caminho_1391" data-name="Caminho 1391" d="M17.629,9.019v8.955l1.392.564-.791,1.846-1.537-.641a1.737,1.737,0,0,1-.757-.636,2,2,0,0,1-.3-1.11V9.019Z" transform="translate(13.639 1.019)" fill="#fff"/>
    <path id="Caminho_1392" data-name="Caminho 1392" d="M19.506,14.108a2.532,2.532,0,0,1,.87-1.911L18.948,10.6a4.679,4.679,0,0,0,0,7.007l1.427-1.594a2.533,2.533,0,0,1-.864-1.909Z" transform="translate(15.368 2.604)" fill="#fff"/>
    <path id="Caminho_1393" data-name="Caminho 1393" d="M20.45,14.639a2.564,2.564,0,0,1-.8-.131l-.682,2.028a4.681,4.681,0,0,0,6.072-3.493l-2.1-.428a2.54,2.54,0,0,1-2.489,2.025Z" transform="translate(16.963 4.615)" fill="#fff"/>
    <path id="Caminho_1394" data-name="Caminho 1394" d="M20.451,10.018a4.678,4.678,0,0,0-1.483.239l.676,2.03a2.566,2.566,0,0,1,.805-.13,2.539,2.539,0,0,1,2.487,2.035l2.1-.425A4.68,4.68,0,0,0,20.451,10.018Z" transform="translate(16.968 2.018)" fill="#fff"/>
  </g>
</svg>
