<svg xmlns="http://www.w3.org/2000/svg" width="24" height="14" viewBox="0 0 24 14">
  <g id="Grupo_79" data-name="Grupo 79" transform="translate(-914 -210)">
    <path id="Caminho_1353" data-name="Caminho 1353" d="M15.469,11.293a1,1,0,1,0,0,1.414A1,1,0,0,0,15.469,11.293Z" transform="translate(914 205)" fill="#fff"/>
    <path id="Caminho_1354" data-name="Caminho 1354" d="M16.177,9.172a1,1,0,1,1,0,1.414A1,1,0,0,1,16.177,9.172Z" transform="translate(914 205)" fill="#fff"/>
    <path id="Caminho_1355" data-name="Caminho 1355" d="M19.712,11.293a1,1,0,1,0,0,1.414A1,1,0,0,0,19.712,11.293Z" transform="translate(914 205)" fill="#fff"/>
    <path id="Caminho_1356" data-name="Caminho 1356" d="M16.177,13.414a1,1,0,1,1,0,1.414A1,1,0,0,1,16.177,13.414Z" transform="translate(914 205)" fill="#fff"/>
    <path id="Caminho_1357" data-name="Caminho 1357" d="M6,13H4V11H6V9H8v2h2v2H8v2H6Z" transform="translate(914 205)" fill="#fff"/>
    <path id="Caminho_1358" data-name="Caminho 1358" d="M7,5A7,7,0,0,0,7,19H17A7,7,0,0,0,17,5ZM17,7H7A5,5,0,0,0,7,17H17A5,5,0,0,0,17,7Z" transform="translate(914 205)" fill="#fff" fill-rule="evenodd"/>
  </g>
</svg>
