<svg xmlns="http://www.w3.org/2000/svg" width="24" height="24" viewBox="0 0 24 24">
  <g id="american-express" transform="translate(-2 -2)">
    <path id="Caminho_1363" data-name="Caminho 1363" d="M2,2H25.94V14.956l-1.185,1.856,1.185,1.652V26H2V13.787l.741-.854L2,12.116Z" fill="#016fd0"/>
    <path id="Caminho_1364" data-name="Caminho 1364" d="M5.873,16.564V12.8h3.98l.427.558.441-.558H25.166V16.3a1.667,1.667,0,0,1-.815.26h-8l-.481-.594v.594H14.294V15.55a1.321,1.321,0,0,1-.681.142h-.537v.872H10.687l-.426-.57-.433.57Z" transform="translate(0.775 2.159)" fill="#fff"/>
    <path id="Caminho_1365" data-name="Caminho 1365" d="M2,10.779l.9-2.1H4.449l.509,1.175V8.682H6.888l.3.849.294-.849h8.661v.427a1.866,1.866,0,0,1,1.2-.427l2.81.01.5,1.16V8.682h1.615l.444.666V8.682h1.629V12.45H22.719l-.426-.668v.668H19.921l-.239-.594h-.638l-.235.594H17.2a1.589,1.589,0,0,1-1.055-.418v.418H13.72l-.481-.594v.594H4.22l-.238-.594H3.345l-.237.594H2Z" transform="translate(0 1.336)" fill="#fff"/>
    <path id="Caminho_1366" data-name="Caminho 1366" d="M3.214,9.069,2,11.89h.788l.223-.565h1.3l.222.565h.805L4.132,9.069Zm.448.657.4.987H3.265Z" transform="translate(0.001 1.414)" fill="#016fd0"/>
    <path id="Caminho_1367" data-name="Caminho 1367" d="M4.854,11.89V9.069l1.12,0,.651,1.819.636-1.823H8.372V11.89h-.7V9.811L6.923,11.89H6.306L5.558,9.811V11.89Z" transform="translate(0.571 1.414)" fill="#016fd0"/>
    <path id="Caminho_1368" data-name="Caminho 1368" d="M8.187,11.89V9.069h2.3V9.7H8.9v.483h1.548v.594H8.9v.5h1.585v.612Z" transform="translate(1.237 1.414)" fill="#016fd0"/>
    <path id="Caminho_1369" data-name="Caminho 1369" d="M10.44,9.069V11.89h.7v-1h.3l.844,1h.86l-.926-1.039a.858.858,0,0,0,.772-.867.911.911,0,0,0-.984-.915Zm.7.631h.8a.323.323,0,0,1,.333.3.318.318,0,0,1-.323.3h-.815Z" transform="translate(1.688 1.414)" fill="#016fd0"/>
    <path id="Caminho_1370" data-name="Caminho 1370" d="M13.522,11.89H12.8V9.069h.718Z" transform="translate(2.161 1.414)" fill="#016fd0"/>
    <path id="Caminho_1371" data-name="Caminho 1371" d="M15.049,11.89h-.155a1.242,1.242,0,0,1-1.206-1.4,1.291,1.291,0,0,1,1.4-1.422h.778v.668h-.806a.678.678,0,0,0-.657.761.69.69,0,0,0,.759.776h.185Z" transform="translate(2.338 1.414)" fill="#016fd0"/>
    <path id="Caminho_1372" data-name="Caminho 1372" d="M16.3,9.069l-1.21,2.821h.788l.223-.565h1.3l.222.565h.805L17.217,9.069Zm.448.657.4.987H16.35Z" transform="translate(2.618 1.414)" fill="#016fd0"/>
    <path id="Caminho_1373" data-name="Caminho 1373" d="M17.939,11.89V9.069h.894l1.142,1.773V9.069h.7V11.89h-.866l-1.171-1.819V11.89Z" transform="translate(3.188 1.414)" fill="#016fd0"/>
    <path id="Caminho_1374" data-name="Caminho 1374" d="M6.274,16V13.183h2.3v.631H6.985V14.3H8.533v.594H6.985v.5H8.57V16Z" transform="translate(0.855 2.237)" fill="#016fd0"/>
    <path id="Caminho_1375" data-name="Caminho 1375" d="M15.649,16V13.183h2.3v.631H16.36V14.3H17.9v.594H16.36v.5h1.585V16Z" transform="translate(2.73 2.237)" fill="#016fd0"/>
    <path id="Caminho_1376" data-name="Caminho 1376" d="M8.266,16l1.118-1.393L8.239,13.183h.886l.682.883.684-.883h.852l-1.129,1.411L11.333,16h-.886l-.662-.869L9.14,16Z" transform="translate(1.248 2.237)" fill="#016fd0"/>
    <path id="Caminho_1377" data-name="Caminho 1377" d="M10.887,13.184V16h.722v-.891h.741a.974.974,0,0,0,1.1-.981.927.927,0,0,0-1.01-.949Zm.722.638h.78a.318.318,0,0,1,.347.325.325.325,0,0,1-.349.325h-.778Z" transform="translate(1.777 2.237)" fill="#016fd0"/>
    <path id="Caminho_1378" data-name="Caminho 1378" d="M13.279,13.183V16h.7V15h.3l.844,1h.86l-.926-1.039a.858.858,0,0,0,.772-.867.911.911,0,0,0-.984-.915Zm.7.631h.8a.323.323,0,0,1,.333.3.318.318,0,0,1-.323.3h-.815Z" transform="translate(2.256 2.237)" fill="#016fd0"/>
    <path id="Caminho_1379" data-name="Caminho 1379" d="M17.849,16v-.612h1.408c.208,0,.3-.113.3-.237s-.09-.239-.3-.239H18.62a.788.788,0,0,1-.861-.845c0-.452.282-.889,1.1-.889h1.37l-.3.635H18.752c-.226,0-.3.119-.3.233a.246.246,0,0,0,.259.246h.666a.773.773,0,0,1,.884.81.845.845,0,0,1-.918.9Z" transform="translate(3.152 2.237)" fill="#016fd0"/>
    <path id="Caminho_1380" data-name="Caminho 1380" d="M20,16v-.612h1.408c.208,0,.3-.113.3-.237s-.09-.239-.3-.239h-.636a.788.788,0,0,1-.861-.845c0-.452.282-.889,1.1-.889h1.37l-.3.635H20.9c-.227,0-.3.119-.3.233a.246.246,0,0,0,.259.246h.667a.773.773,0,0,1,.884.81.845.845,0,0,1-.918.9Z" transform="translate(3.582 2.237)" fill="#016fd0"/>
  </g>
</svg>
