<svg xmlns="http://www.w3.org/2000/svg" width="16" height="20" viewBox="0 0 16 20">
  <g id="Grupo_171" data-name="Grupo 171" transform="translate(-989 -340)">
    <path id="Path" d="M1,0A1,1,0,0,1,2,1V12a1,1,0,0,0,1,1h8a1,1,0,0,0,1-1V1a1,1,0,0,1,2,0V12a3,3,0,0,1-3,3H3a3,3,0,0,1-3-3V1A1,1,0,0,1,1,0Z" transform="translate(990 345)" fill="#707070"/>
    <path id="Path-2" data-name="Path" d="M1,0A1,1,0,0,1,2,1V9A1,1,0,0,1,0,9V1A1,1,0,0,1,1,0Z" transform="translate(994 346)" fill="#707070"/>
    <path id="Path-3" data-name="Path" d="M1,0A1,1,0,0,1,2,1V9A1,1,0,0,1,0,9V1A1,1,0,0,1,1,0Z" transform="translate(998 346)" fill="#707070"/>
    <path id="Path-4" data-name="Path" d="M0,1A1,1,0,0,1,1,0H15a1,1,0,0,1,0,2H1A1,1,0,0,1,0,1Z" transform="translate(989 342)" fill="#707070"/>
    <path id="Path-5" data-name="Path" d="M0,1A1,1,0,0,1,1,0H7A1,1,0,0,1,8,1V2H0Z" transform="translate(993 340)" fill="#707070"/>
  </g>
</svg>
