<svg xmlns="http://www.w3.org/2000/svg" width="22" height="22" viewBox="0 0 22 22">
  <path id="dribbble" d="M1,11.955v.089A10.988,10.988,0,0,0,11.87,23H12A11,11,0,1,0,12,1q-.168,0-.335,0A10.989,10.989,0,0,0,1,11.955Zm19.481,3.063a9.013,9.013,0,0,0-2.063-9.327,10.931,10.931,0,0,1-3.152,3.356A11.033,11.033,0,0,1,16,12.878a11.094,11.094,0,0,1,4.477,2.141Zm-4.64-.123a9.072,9.072,0,0,1,3.731,1.971,9,9,0,0,1-6.993,4.116A11.058,11.058,0,0,0,15.841,14.9ZM14,12.622a9.025,9.025,0,0,0-.5-2.581,10.975,10.975,0,0,1-9.147-.069,11.129,11.129,0,0,1-.987-.522,9.021,9.021,0,0,0,1.3,7.77A11.017,11.017,0,0,1,14,12.622ZM6.047,18.75a9.01,9.01,0,0,1,7.811-4.131A9.024,9.024,0,0,1,9.674,20.7,8.98,8.98,0,0,1,6.047,18.75ZM12,3a8.958,8.958,0,0,1,4.847,1.415,8.944,8.944,0,0,1-2.479,2.815,10.941,10.941,0,0,0-4.341-4.014A9.031,9.031,0,0,1,12,3ZM8.806,4.846a8.958,8.958,0,0,1,3.832,3.39A8.979,8.979,0,0,1,5.2,8.159a9.084,9.084,0,0,1-1.044-.573,9.044,9.044,0,0,1,3.173-3.28A9.057,9.057,0,0,1,8.806,4.846Z" transform="translate(-1 -1)" fill="#fff" fill-rule="evenodd"/>
</svg>
