<svg id="Componente_55_2" data-name="Componente 55 – 2" xmlns="http://www.w3.org/2000/svg" width="27" height="37" viewBox="0 0 27 37">
  <g id="Retângulo_22" data-name="Retângulo 22" transform="translate(0 7)" fill="#fff" stroke="#00ace5" stroke-width="1">
    <path d="M0,0H22a5,5,0,0,1,5,5V25a5,5,0,0,1-5,5H0a0,0,0,0,1,0,0V0A0,0,0,0,1,0,0Z" stroke="none"/>
    <path d="M.5.5H22A4.5,4.5,0,0,1,26.5,5V25A4.5,4.5,0,0,1,22,29.5H.5a0,0,0,0,1,0,0V.5A0,0,0,0,1,.5.5Z" fill="none"/>
  </g>
  <text id="_" data-name="+" transform="translate(3 30)" fill="#08f" font-size="28" font-family="SegoeUI-Bold, Segoe UI" font-weight="700"><tspan x="0" y="0">+</tspan></text>
</svg>
