<svg id="Icone_menu" xmlns="http://www.w3.org/2000/svg" width="20" height="18" viewBox="0 0 20 18">
  <path id="Caminho_854" data-name="Caminho 854" d="M2,6.5C2,5.672,2.448,5,3,5H21c.552,0,1,.672,1,1.5S21.552,8,21,8H3C2.448,8,2,7.328,2,6.5Z" transform="translate(-2 -5)" fill="#00ace5"/>
  <path id="Caminho_855" data-name="Caminho 855" d="M2,12.532c0-.828.448-1.5,1-1.5H21c.552,0,1,.672,1,1.5s-.448,1.5-1,1.5H3C2.448,14.032,2,13.361,2,12.532Z" transform="translate(-2 -3.532)" fill="#00ace5"/>
  <path id="Caminho_856" data-name="Caminho 856" d="M3,17.065c-.552,0-1,.672-1,1.5s.448,1.5,1,1.5H21c.552,0,1-.672,1-1.5s-.448-1.5-1-1.5Z" transform="translate(-2 -2.064)" fill="#00ace5"/>
</svg>
