<svg xmlns="http://www.w3.org/2000/svg" width="40" height="17.412" viewBox="0 0 40 17.412">
  <path id="hipercard" d="M18.709,25.406,2,25.412v-.04c0-.022.027-.166.059-.319s.083-.4.113-.541.079-.39.111-.546L2.4,23.39c.033-.161.084-.416.115-.566s.08-.4.112-.546.085-.41.119-.576l.115-.566c.029-.145.075-.368.1-.5s.062-.3.078-.384.065-.329.11-.546.1-.463.111-.546.066-.329.112-.546.1-.463.111-.546.066-.329.112-.546.1-.458.11-.536.055-.278.089-.445.1-.481.145-.7.122-.595.172-.839.108-.536.131-.647l.091-.445.111-.536c.033-.161.088-.425.121-.586s.084-.412.113-.556.079-.386.111-.536.086-.414.121-.586.094-.436.13-.586.088-.332.115-.4a3.7,3.7,0,0,1,.164-.348l.115-.217.1-.137c.058-.075.16-.195.228-.265s.183-.176.255-.235.177-.138.233-.177S6.422,8.64,6.5,8.6s.187-.1.243-.127.169-.074.253-.106.243-.086.354-.12.32-.085.464-.113.371-.066.506-.084l.244-.033,16.719-.006L42,8v.04c0,.022-.027.166-.06.319s-.088.415-.122.582-.084.408-.111.536-.077.374-.113.546l-.12.586c-.031.15-.081.4-.111.546s-.081.4-.112.546-.08.387-.108.526l-.113.556c-.034.167-.089.431-.121.587s-.083.4-.111.536l-.113.556c-.034.167-.088.431-.121.586s-.082.392-.109.526l-.112.556-.113.556c-.027.133-.076.37-.109.526s-.088.424-.123.6l-.112.546c-.026.128-.076.369-.11.536s-.088.431-.12.587-.083.4-.112.546-.081.395-.114.556l-.12.587-.11.536-.112.546c-.034.167-.089.43-.122.584l-.061.281-.072.194c-.04.107-.1.249-.133.316s-.1.184-.151.262-.119.176-.154.22-.14.156-.234.251l-.17.171-.164.117c-.09.064-.187.129-.216.145s-.137.071-.242.123-.252.119-.327.148-.226.079-.334.11-.223.062-.256.069l-.257.053c-.108.023-.327.057-.485.076l-.289.034Zm-5.945-4.322H13.2l.012-.032a.325.325,0,0,0,.012-.092c0-.033.014-.153.032-.266s.059-.375.091-.58l.109-.688c.027-.172.06-.393.074-.49a.711.711,0,0,1,.036-.177.345.345,0,0,1,.062.1l.051.1.112.113.112.113.138.055.138.055.164.021.164.021.209-.013.209-.013.226-.059.226-.058.121-.055a2.451,2.451,0,0,0,.263-.148l.142-.092.132-.132a2.991,2.991,0,0,0,.228-.258,1.144,1.144,0,0,0,.1-.138.582.582,0,0,1,.057-.1,2.259,2.259,0,0,0,.143-.287c.047-.111.121-.311.164-.445l.078-.243.041-.21c.022-.116.051-.307.064-.425l.023-.214-.013-.182-.013-.182L16.86,15.9l-.042-.182-.068-.136-.068-.136-.132-.14-.132-.14-.156-.081L16.105,15l-.172-.041-.172-.041-.172-.013-.172-.013-.191.022-.191.022-.156.04-.156.04-.136.063a2.47,2.47,0,0,0-.241.13,1.2,1.2,0,0,0-.133.1.653.653,0,0,1-.081.062l-.053.035.037-.178c.02-.1.037-.189.038-.2V15h-.741l-.065.41c-.036.225-.092.573-.125.773s-.083.5-.111.667-.078.463-.111.657-.088.5-.122.688l-.11.6-.112.607c-.035.189-.09.489-.124.667s-.088.46-.121.627-.065.324-.071.349l-.011.045Zm1.872-2.338-.169.01-.11-.019-.11-.019-.112-.051-.112-.051-.078-.075-.078-.075-.045-.1a1.426,1.426,0,0,1-.071-.21l-.026-.109.01-.174.01-.174.052-.273c.029-.15.08-.432.114-.627s.086-.48.115-.634l.053-.28.116-.1a1.856,1.856,0,0,1,.224-.158l.108-.062.142-.044.142-.044.182-.011.182-.011.148.032.148.032.1.048.1.048.088.088.088.088.047.093a1.362,1.362,0,0,1,.081.223l.034.13-.01.384-.01.384-.052.227c-.029.125-.083.316-.121.425l-.069.2-.084.16a2.817,2.817,0,0,1-.159.264,1.127,1.127,0,0,1-.145.165c-.039.033-.1.086-.145.116l-.074.055-.172.058-.172.058Zm4.2.556.222,0,.222-.02c.122-.011.323-.034.445-.052s.334-.056.47-.086l.247-.054L20.454,19c.007-.05.035-.2.062-.332l.049-.24-.011-.011-.011-.011-.076.037c-.041.02-.171.068-.288.106l-.212.07-.223.043-.223.043h-.708l-.121-.039a1.9,1.9,0,0,1-.218-.087l-.1-.048-.08-.072-.08-.072-.062-.109-.062-.109-.039-.137-.039-.137v-.506l.035-.226.035-.226.3-.014.3-.014,1.125.007,1.125.007.034-.144c.019-.079.047-.243.063-.364l.03-.22v-.37l-.032-.138-.032-.138-.053-.091a1.288,1.288,0,0,0-.114-.162.906.906,0,0,0-.133-.122,1.959,1.959,0,0,0-.173-.1l-.1-.054-.177-.043-.177-.043-.218-.021-.218-.021-.2.013-.2.013L19,14.967l-.243.047-.152.061a2.807,2.807,0,0,0-.283.135,1.988,1.988,0,0,0-.223.148c-.05.041-.137.119-.193.175a1.823,1.823,0,0,0-.184.223,2.956,2.956,0,0,0-.154.263c-.039.078-.091.187-.114.243s-.066.169-.094.253-.073.243-.1.354-.062.294-.08.407l-.032.2v.6l.031.131a2.457,2.457,0,0,0,.072.243,1.665,1.665,0,0,0,.093.2,1.132,1.132,0,0,0,.135.179,1.733,1.733,0,0,0,.184.163,1.455,1.455,0,0,0,.22.129l.119.054.166.04c.091.022.229.048.306.058S18.713,19.3,18.835,19.3Zm.381-2.849c-.56,0-1.018,0-1.018-.009s.024-.075.053-.157.081-.2.114-.269l.061-.121.134-.133.134-.133.131-.063a1.54,1.54,0,0,1,.212-.084,2.156,2.156,0,0,1,.283-.034l.2-.013.155.02.155.02.113.052.113.052.062.067a.729.729,0,0,1,.09.12l.028.053.019.118.019.119-.021.2-.021.2Zm6.05,2.849.223,0,.253-.03c.139-.016.324-.044.411-.061s.228-.05.313-.074a1.1,1.1,0,0,0,.171-.058.963.963,0,0,0,.054-.2c.02-.1.046-.245.057-.311a.551.551,0,0,0,.013-.129s-.019,0-.033.013a1.781,1.781,0,0,1-.22.093l-.195.072-.277.054-.277.054-.236-.008-.236-.008-.134-.046-.134-.046-.1-.091-.1-.09-.069-.125-.069-.125-.033-.167-.033-.167v-.434l.04-.263.04-.263.042-.142c.023-.078.049-.169.058-.2a2.154,2.154,0,0,1,.082-.212c.036-.083.1-.212.145-.287l.078-.135.1-.1.1-.1.1-.063.1-.063.131-.04a2.433,2.433,0,0,1,.282-.064l.152-.024.222.011.222.011.263.053.263.053.107.04c.059.022.109.04.113.04a1.3,1.3,0,0,0,.031-.167c.014-.092.039-.243.056-.336a.854.854,0,0,0,.021-.177,1.129,1.129,0,0,0-.176-.028c-.092-.01-.341-.029-.554-.041l-.387-.022-.273.021-.273.021-.2.043-.2.042-.13.052a1.9,1.9,0,0,0-.233.115c-.057.035-.129.081-.16.1a2.85,2.85,0,0,0-.212.193l-.155.152-.086.127a3.233,3.233,0,0,0-.183.323l-.1.2-.074.212c-.041.117-.1.308-.126.425l-.052.212-.019.192-.019.192v.506l.019.147.019.147.06.151.061.151.07.109.07.109.111.11.111.109.118.062.118.062.155.043a2.717,2.717,0,0,0,.273.06A3.322,3.322,0,0,0,25.266,19.3Zm3.327-.007.273-.008.172-.044.172-.044.111-.052a2.156,2.156,0,0,0,.222-.127,1.7,1.7,0,0,0,.21-.173,2.29,2.29,0,0,0,.18-.2.537.537,0,0,1,.086-.1,1.657,1.657,0,0,1-.023.208,3.07,3.07,0,0,0-.029.328V19.2h.742l.011-.288.011-.288.053-.374c.029-.206.076-.511.1-.677s.078-.449.11-.627.082-.456.112-.617l.054-.293,0-.253,0-.253-.057-.117-.057-.117-.078-.075-.078-.074-.128-.065-.127-.065-.19-.042-.19-.042L30,14.915l-.262-.02-.337.021c-.185.011-.446.034-.58.05L28.582,15h-.331l-.024.116c-.013.064-.05.216-.082.338a1.8,1.8,0,0,0-.051.228,1.319,1.319,0,0,0,.2-.045c.1-.028.327-.074.493-.1l.3-.052.273-.011.273-.011.176.031.176.031.117.058.117.058.066.1.066.1v.309l-.035.169-.035.17-.728,0-.728,0-.238.065a2.755,2.755,0,0,0-.322.106.5.5,0,0,1-.1.041,1.153,1.153,0,0,0-.173.1l-.154.1-.122.121a1.869,1.869,0,0,0-.19.222,1.949,1.949,0,0,0-.136.258l-.067.157-.031.177L27.258,18v.371l.029.154.03.154.055.1a1.255,1.255,0,0,0,.123.18l.068.079.121.074.121.073.138.039c.076.022.192.048.258.058l.119.019Zm.253-.566-.162.008-.107-.027a1.146,1.146,0,0,1-.2-.074l-.092-.047-.05-.059a.943.943,0,0,1-.093-.143L28.1,18.3l-.008-.194-.009-.194.034-.118a1.939,1.939,0,0,1,.1-.25l.064-.132.123-.122.123-.122.13-.063.13-.063.162-.038.162-.038h1.011l.032.013.032.013-.027.159c-.015.087-.05.245-.079.351s-.078.261-.111.345-.06.159-.06.165a1.082,1.082,0,0,1-.074.136l-.074.124-.121.12a.825.825,0,0,1-.138.12.378.378,0,0,0-.091.051l-.075.051-.164.052-.164.052Zm6.583.573.192,0,.182-.03c.1-.016.228-.042.283-.058a1.479,1.479,0,0,0,.222-.091l.121-.062.1-.092.1-.092.11-.147a1.7,1.7,0,0,0,.122-.177l.012-.03-.01.1c-.006.056-.018.147-.028.2s-.024.163-.031.238L36.8,19.2h.793v-.273l.06-.516c.033-.284.082-.661.109-.839s.068-.433.092-.566.066-.375.094-.536.078-.443.111-.627l.119-.647.111-.6c.029-.156.08-.429.115-.607s.084-.428.111-.556.049-.239.049-.248v-.015H37.7l-.013.126c-.007.07-.04.3-.074.511s-.088.548-.121.748-.065.394-.071.431l-.011.068-.034-.015c-.019-.008-.121-.036-.226-.063l-.192-.048-.263-.02-.263-.021-.222.021-.222.021-.2.051-.2.051-.192.094-.192.094-.142.1-.142.1-.122.131a2.975,2.975,0,0,0-.216.265l-.094.134-.11.229c-.06.126-.134.292-.164.37s-.081.251-.115.384l-.062.242L34,17.5l-.031.314.023.253.023.253.027.091c.015.05.046.139.07.2l.043.107.078.105.078.105L34.4,19l.089.073.121.06a1.666,1.666,0,0,0,.249.1,2.274,2.274,0,0,0,.253.051C35.179,19.292,35.322,19.3,35.428,19.3Zm.345-.574-.153.008-.1-.018a1.122,1.122,0,0,1-.2-.061l-.1-.042-.083-.068-.083-.068-.062-.118-.062-.118-.028-.131-.028-.132,0-.263,0-.263.033-.232.033-.233.051-.162a1.673,1.673,0,0,0,.051-.187.969.969,0,0,1,.061-.162c.033-.075.089-.192.124-.258a2.092,2.092,0,0,1,.145-.231,1.979,1.979,0,0,1,.177-.2,1.34,1.34,0,0,1,.186-.148l.091-.056.159-.055.159-.055h.667l.192.053c.106.029.218.063.249.076l.057.022-.011.055c-.006.031-.03.165-.053.3s-.069.388-.1.566-.083.446-.112.6-.07.341-.093.425-.053.2-.069.257a1.714,1.714,0,0,1-.085.223,1.777,1.777,0,0,1-.119.208,1.157,1.157,0,0,1-.131.154,1.74,1.74,0,0,1-.179.137l-.111.074-.161.051-.161.051ZM6.01,19.2H6.5l.035-.217c.019-.12.057-.349.084-.511l.111-.667c.034-.206.086-.511.114-.677s.074-.426.1-.575a2.522,2.522,0,0,1,.06-.283l.011-.011H9.661l.015.015.015.015-.023.117c-.013.064-.05.262-.083.44l-.123.667c-.035.189-.085.457-.112.6s-.081.43-.12.647-.071.406-.071.42V19.2h.987l.022-.126c.012-.07.031-.195.043-.278s.04-.261.062-.394.068-.4.1-.587.087-.512.121-.718.085-.506.112-.667.077-.434.11-.607.087-.464.121-.647.084-.461.112-.617.079-.438.114-.627.078-.41.1-.49l.034-.147h-1l-.014.1c-.007.053-.032.2-.054.329s-.062.355-.089.506-.076.437-.109.637-.076.465-.094.589L9.8,15.68l-.733.015-.733.015-.614-.015c-.338-.008-.616-.016-.618-.018a1.728,1.728,0,0,1,.026-.175c.016-.094.047-.258.069-.363s.062-.315.09-.465.06-.337.071-.414.034-.208.051-.288.049-.251.072-.377.046-.245.053-.263l.012-.032H6.554l-.032.177c-.017.1-.041.236-.052.308s-.048.3-.082.516-.084.525-.112.7l-.111.7c-.034.211-.089.539-.123.728s-.084.457-.11.6l-.111.586c-.035.183-.086.443-.113.576s-.058.288-.067.344-.041.216-.07.357-.052.27-.052.288V19.2Zm5.439,0h.435l.012-.032a.379.379,0,0,0,.012-.1c0-.039.027-.241.061-.448s.089-.546.123-.752.084-.506.112-.667.076-.43.108-.6.082-.426.11-.576.084-.436.123-.635.077-.37.083-.38L12.64,15,12.2,15l-.44.005-.037.263c-.02.145-.064.431-.1.637s-.085.52-.113.7-.078.465-.111.637l-.11.586c-.028.15-.079.414-.113.586s-.079.4-.1.506-.045.213-.051.238l-.012.046Zm10.173,0h.432l.013-.183c.007-.1.032-.3.054-.45s.069-.44.1-.651.1-.563.141-.782.092-.436.109-.483a.556.556,0,0,0,.03-.113,1.063,1.063,0,0,1,.072-.184,2.506,2.506,0,0,1,.164-.294l.092-.137.123-.114.123-.114.152-.073.152-.073h.465l.114.034c.063.019.12.034.126.034s.012-.022.012-.048.023-.16.05-.3.051-.254.051-.261a.529.529,0,0,0-.147-.057,1.858,1.858,0,0,0-.248-.057l-.1-.012-.131.023a1.689,1.689,0,0,0-.239.063,1.362,1.362,0,0,0-.217.109,1.548,1.548,0,0,0-.208.167,2.358,2.358,0,0,0-.2.238l-.133.182-.029.041.018-.081c.01-.044.037-.19.06-.324s.047-.259.053-.278L22.69,15h-.771v.049c0,.027-.023.188-.051.359s-.074.456-.1.634-.078.487-.111.688-.083.487-.111.637-.078.414-.112.587-.088.454-.122.627-.075.376-.09.452-.029.147-.029.157V19.2Zm10.249,0h.441v-.27l.051-.335c.028-.184.074-.476.1-.648s.064-.391.079-.485.054-.3.088-.455.075-.324.092-.374a.635.635,0,0,0,.032-.117,1.366,1.366,0,0,1,.084-.2l.083-.176.11-.146.11-.146.12-.09a1.754,1.754,0,0,1,.236-.147l.116-.056.253,0,.253,0,.1.032.1.032.017-.01.017-.01v-.065a2.611,2.611,0,0,1,.048-.293l.047-.229-.053-.021c-.029-.011-.1-.035-.154-.053l-.1-.032H33.78l-.148.052-.148.052-.111.067-.111.067-.145.152-.145.152-.078.118a.579.579,0,0,1-.084.111s.02-.138.052-.3.058-.314.058-.339V15h-.748v.013c0,.007-.019.137-.041.288s-.069.444-.1.649-.088.538-.121.738-.083.487-.112.637-.078.414-.111.586-.087.45-.12.617l-.1.49-.037.187ZM12.3,14.269h.123l.1-.033.1-.033.086-.088.086-.088.045-.117.046-.117,0-.172,0-.172-.04-.067-.04-.067-.07-.044-.07-.044h-.3l-.1.046-.1.046-.06.064-.06.064-.047.111-.047.111-.009.173-.009.173.044.086.044.086.085.038.085.039Z" transform="translate(-2 -8)" fill="#b3131b"/>
</svg>
