<svg xmlns="http://www.w3.org/2000/svg" width="22" height="20" viewBox="0 0 22 20">
  <path id="gift" d="M17.535,2.879a3,3,0,0,0-4.243,0L11.879,4.293q-.09.09-.172.186-.081-.1-.172-.186L10.121,2.879A3,3,0,0,0,5.879,7.121L6.757,8H1v6H3v8H21V14h2V8H16.657l.879-.879A3,3,0,0,0,17.535,2.879ZM14.707,7.121l1.414-1.414a1,1,0,1,0-1.414-1.414L13.293,5.707a1,1,0,0,0,1.414,1.414ZM10.121,5.707,8.707,4.293A1,1,0,0,0,7.293,5.707L8.707,7.121a1,1,0,1,0,1.414-1.414ZM21,10v2H3V10Zm-8.083,4H19v6H12.917Zm-1.833,0v6H5V14Z" transform="translate(-1 -2)" fill="#5d5d5d" fill-rule="evenodd"/>
</svg>
