<svg id="Icone_favorito" xmlns="http://www.w3.org/2000/svg" width="43.333" height="40" viewBox="0 0 43.333 40">
  <g id="_Color" data-name=" ↳Color" fill="#fff" stroke-miterlimit="10">
    <path d="M 21.67051315307617 37.96946716308594 L 19.53811645507812 36.01644897460938 L 19.50854682922363 35.98947143554688 C 14.08191585540771 31.03871917724609 9.395316123962402 26.76309967041016 6.23434591293335 22.87265968322754 C 2.960125923156738 18.84284973144531 1.500006079673767 15.48622989654541 1.500006079673767 11.98910045623779 C 1.500006079673767 6.107359886169434 6.075546264648438 1.5 11.91666603088379 1.5 C 15.17166614532471 1.5 18.38850593566895 3.004650115966797 20.52173614501953 5.52495002746582 L 21.66666603088379 6.877630233764648 L 22.81159591674805 5.52495002746582 C 24.94482612609863 3.004650115966797 28.16166687011719 1.5 31.41666603088379 1.5 C 37.25778579711914 1.5 41.83333587646484 6.107359886169434 41.83333587646484 11.98910045623779 C 41.83333587646484 15.48017978668213 40.37812423706055 18.83157920837402 37.11491775512695 22.85576057434082 C 33.96426773071289 26.74114036560059 29.29186630249023 31.01291084289551 23.88167572021484 35.95920944213867 L 23.79619598388672 36.03734970092773 L 21.67051315307617 37.96946716308594 Z" stroke="none"/>
    <path d="M 21.67434883117676 35.93893051147461 L 22.86956596374512 34.85211181640625 C 28.23546600341797 29.94631195068359 32.8696174621582 25.70949935913086 35.9498291015625 21.91097450256348 C 38.98140335083008 18.17243766784668 40.33332824707031 15.11242485046387 40.33332824707031 11.98910045623779 C 40.33332824707031 9.539850234985352 39.41580200195312 7.267887592315674 37.7497673034668 5.591724872589111 C 36.08856582641602 3.920424938201904 33.83942794799805 3 31.41666603088379 3 C 28.59719085693359 3 25.8083667755127 4.306187629699707 23.95652770996094 6.494037628173828 L 21.66666603088379 9.19941234588623 L 19.37680435180664 6.494037628173828 C 17.52496528625488 4.306187629699707 14.73614120483398 3 11.91666603088379 3 C 9.493903160095215 3 7.244766235351562 3.920424938201904 5.583566188812256 5.591724872589111 C 3.917528629302979 7.267887592315674 3.000003576278687 9.539850234985352 3.000003576278687 11.98910045623779 C 3.000003576278687 15.11791229248047 4.356553554534912 18.18280029296875 7.398516178131104 21.9267749786377 C 10.48892879486084 25.73036193847656 15.13721561431885 29.97103691101074 20.51949119567871 34.88131332397461 L 20.55122947692871 34.91028594970703 L 21.67434883117676 35.93893051147461 M 21.66666603088379 40 L 18.52500343322754 37.12261199951172 C 7.366665840148926 26.94277572631836 3.530883759594872e-06 20.22887420654297 3.530883759594872e-06 11.98910045623779 C 3.530883759594872e-06 5.275199890136719 5.24332857131958 0 11.91666603088379 0 C 15.68666648864746 0 19.30500411987305 1.765662550926208 21.66666603088379 4.555862426757812 C 24.02832794189453 1.765662550926208 27.64666557312012 0 31.41666603088379 0 C 38.09000396728516 0 43.33332824707031 5.275199890136719 43.33332824707031 11.98910045623779 C 43.33332824707031 20.22887420654297 35.96666717529297 26.94277572631836 24.80832862854004 37.14441299438477 L 21.66666603088379 40 Z" stroke="none" fill="#00ace5"/>
  </g>
</svg>
