<svg id="Icone_carteira" xmlns="http://www.w3.org/2000/svg" width="25.002" height="25" viewBox="0 0 25.002 25">
  <path id="União_2" data-name="União 2" d="M2491.569,2653l-.412-.148a3.252,3.252,0,0,1-2.008-2l-.15-.421v-14.856l.135-.427a3.227,3.227,0,0,1,1.54-1.854,4.085,4.085,0,0,1,2.269-.37h.919l5.377-2.336c5.606-2.432,5.828-2.475,5.912-2.491l.188-.038.088-.017c.024-.006.047-.01.063-.013a1.405,1.405,0,0,1,.308-.027,4.9,4.9,0,0,1,1.066.128,3.609,3.609,0,0,1,1.969,1.366c.21.3,1.033,1.933,1.126,2.118l.709,1.419a3.424,3.424,0,0,1,1.968,1.539c.371.7.371.925.371,3.1v1.512a2.458,2.458,0,0,1,.8.918l0,0,.188.4v2.421a9.714,9.714,0,0,1-.119,2.723l0,.01a2.328,2.328,0,0,1-.87,1.086v1.522a22.5,22.5,0,0,1-.068,2.309,3.294,3.294,0,0,1-2.207,2.308l-.006,0c-.373.111-.38.113-9.758.113Zm.263-17.642a1.024,1.024,0,0,0-.4.4l0,0-.042.085v14.212l.049.108a1.1,1.1,0,0,0,.412.4c.267.044,2.057.044,9.193.044h9.044l.115-.057a.891.891,0,0,0,.4-.434l.053-.115.021-2.89-1.292-.013a9.7,9.7,0,0,1-2.54-.145,3.969,3.969,0,0,1-1.848-1.094,3.885,3.885,0,0,1-1.195-2.437,4.183,4.183,0,0,1,2.55-4.3c.718-.284,1.1-.306,3.145-.306h1.18v-1.044c0-1.725-.029-1.92-.118-2.073l0,0a1.2,1.2,0,0,0-.392-.356c-.305-.042-2.375-.043-9.165-.043h-.1C2493.785,2635.309,2492.057,2635.31,2491.832,2635.358Zm15.546,5.927,0,0a1.764,1.764,0,0,0-.013,3.361,10.569,10.569,0,0,0,2.3.076c.561,0,.922.005,1.208.005.334,0,.586,0,.753-.008.017-.315.017-.885.017-1.8v-1.71h-1.89A9.539,9.539,0,0,0,2507.378,2641.285Zm-1.679-10.892c-.37.141-3.455,1.467-5.9,2.528h1.917l2.777-1.278c.743-.341,1.481-.682,2.164-1a1.264,1.264,0,0,0-.469-.23,1.31,1.31,0,0,0-.306-.037A.988.988,0,0,0,2505.7,2630.394Zm1.675,2.524h.575c-.04-.077-.075-.149-.11-.215Z" transform="translate(-2489 -2628)" fill="#fff"/>
</svg>
