<svg xmlns="http://www.w3.org/2000/svg" width="45" height="45" viewBox="0 0 45 45">
  <g id="Seta_Direita_Banner" data-name="Seta Direita Banner" transform="translate(125.674 427.673) rotate(180)">
    <path id="Caminho_256" data-name="Caminho 256" d="M2.742,0,0,2.742,5.484,8.225,0,13.709l2.742,2.742,8.225-8.225Z" transform="translate(113.075 413.399) rotate(180)" fill="#9b3592"/>
    <path id="Caminho_257" data-name="Caminho 257" d="M0,2.742,2.742,0l8.226,8.225L2.742,16.451,0,13.709,5.484,8.225Z" transform="translate(104.24 413.399) rotate(180)" fill="#9b3592"/>
    <path id="Caminho_258" data-name="Caminho 258" d="M0,22.5A22.5,22.5,0,1,0,22.5,0,22.5,22.5,0,0,0,0,22.5Zm4.091,0A18.409,18.409,0,1,0,22.5,4.091,18.409,18.409,0,0,0,4.091,22.5Z" transform="translate(125.674 427.673) rotate(180)" fill="#9b3592" fill-rule="evenodd"/>
  </g>
</svg>
