<svg xmlns="http://www.w3.org/2000/svg" width="28" height="27.998" viewBox="0 0 28 27.998">
  <path id="União_2" data-name="União 2" d="M2.877,28l-.461-.166A3.641,3.641,0,0,1,.167,25.591L0,25.119V8.481L.151,8A3.614,3.614,0,0,1,1.876,5.926a4.574,4.574,0,0,1,2.541-.415H5.446L11.468,2.9C17.746.172,17.995.124,18.089.106L18.3.063l.1-.019c.027-.007.052-.011.07-.014A1.578,1.578,0,0,1,18.814,0a5.488,5.488,0,0,1,1.194.144,4.043,4.043,0,0,1,2.2,1.53c.236.334,1.157,2.165,1.261,2.372l.794,1.589a3.834,3.834,0,0,1,2.2,1.724c.416.781.416,1.036.416,3.471v1.694a2.752,2.752,0,0,1,.9,1.028l0,.005.211.448v2.711c0,2.449-.011,2.677-.133,3.049l0,.012a2.608,2.608,0,0,1-.975,1.216v1.7a25.236,25.236,0,0,1-.076,2.586,3.689,3.689,0,0,1-2.471,2.585l-.007,0C23.917,28,23.908,28,13.406,28ZM3.172,8.241a1.147,1.147,0,0,0-.45.449l0,.005-.047.1V24.706l.055.121a1.228,1.228,0,0,0,.461.452c.3.049,2.3.049,10.3.049H23.613l.129-.064a1,1,0,0,0,.443-.486l.06-.128.024-3.237L22.821,21.4a10.865,10.865,0,0,1-2.844-.162,4.445,4.445,0,0,1-2.069-1.225,4.351,4.351,0,0,1-1.338-2.729,4.684,4.684,0,0,1,2.855-4.815c.8-.319,1.23-.342,3.522-.342H24.27v-1.17c0-1.932-.032-2.15-.132-2.322l0,0a1.34,1.34,0,0,0-.439-.4c-.342-.046-2.66-.048-10.264-.048h-.109C5.359,8.186,3.424,8.186,3.172,8.241Zm17.41,6.638,0,0a1.976,1.976,0,0,0-.014,3.763,11.812,11.812,0,0,0,2.576.086c.629,0,1.032.006,1.353.006.375,0,.657,0,.844-.009.019-.353.019-.991.019-2.016V14.8H23.238A10.67,10.67,0,0,0,20.582,14.879ZM18.7,2.681c-.415.158-3.869,1.642-6.6,2.831h2.147l3.11-1.431c.832-.382,1.658-.764,2.424-1.119a1.411,1.411,0,0,0-.526-.258,1.454,1.454,0,0,0-.343-.042A1.094,1.094,0,0,0,18.7,2.681Zm1.875,2.827h.644c-.045-.086-.084-.167-.123-.24Z" transform="translate(0 0)" fill="#08f"/>
</svg>
