<svg id="Logo_Reconhece_vc" xmlns="http://www.w3.org/2000/svg" width="230" height="26.023" viewBox="0 0 230 26.023">
  <g id="Grupo_54" data-name="Grupo 54">
    <path id="Caminho_11" data-name="Caminho 11" d="M-.019,419.623c-.221-2.275,3.875-2.275,3.654,0l.063,2.339A6.608,6.608,0,0,1,9.81,417.7a2.007,2.007,0,0,1,2.142,1.987A2.045,2.045,0,0,1,9.81,421.77c-3.591,0-5.733,2.243-5.733,6.6v6.506a1.927,1.927,0,0,1-2.048,1.987,1.944,1.944,0,0,1-2.048-1.987V419.623Z" transform="translate(0.027 -411.098)" fill="#9c3593"/>
    <path id="Caminho_12" data-name="Caminho 12" d="M57.79,420.425a7.839,7.839,0,0,1,2.772,5.865,1.665,1.665,0,0,1-1.8,1.859H45.19a5.916,5.916,0,0,0,6.237,5.608,7.323,7.323,0,0,0,2.268-.385,6.7,6.7,0,0,0,2.835-1.795,1.982,1.982,0,0,1,1.2-.481,1.578,1.578,0,0,1,1.67,1.6,2.146,2.146,0,0,1-.851,1.57,9.783,9.783,0,0,1-7.4,2.98,10.12,10.12,0,0,1-7.277-2.756A9.254,9.254,0,0,1,41,427.636a9.017,9.017,0,0,1,2.961-6.89,10.168,10.168,0,0,1,7.277-2.852A9.04,9.04,0,0,1,57.79,420.425Zm-1.166,5.16a5.687,5.687,0,0,0-5.481-4.711,5.888,5.888,0,0,0-5.922,4.743h11.4Z" transform="translate(-28.076 -411.227)" fill="#9c3593"/>
    <path id="Caminho_13" data-name="Caminho 13" d="M128.555,419.656a2.127,2.127,0,0,1,1.071,1.763,1.839,1.839,0,0,1-1.89,1.859,2.3,2.3,0,0,1-1.26-.481,6.4,6.4,0,0,0-3.969-1.346,5.858,5.858,0,0,0-4.379,1.763,5.659,5.659,0,0,0-1.764,4.262,5.852,5.852,0,0,0,1.764,4.327,6.059,6.059,0,0,0,4.379,1.7,6.222,6.222,0,0,0,4.19-1.538,2.306,2.306,0,0,1,1.229-.481,1.76,1.76,0,0,1,1.827,1.827,2.054,2.054,0,0,1-.851,1.6,9.738,9.738,0,0,1-6.458,2.243,10.12,10.12,0,0,1-7.277-2.756,9.254,9.254,0,0,1-2.867-6.858,9.017,9.017,0,0,1,2.961-6.89,10.264,10.264,0,0,1,7.34-2.852A9.325,9.325,0,0,1,128.555,419.656Z" transform="translate(-76.915 -411.164)" fill="#00ade6"/>
    <path id="Caminho_15" data-name="Caminho 15" d="M267.391,419.815a8.092,8.092,0,0,1,2.079,5.961v9.134a2.049,2.049,0,0,1-4.1,0v-7.852c0-3.782-1.89-5.672-4.6-5.672-2.993,0-5.1,1.955-5.1,6.025v7.5a2.049,2.049,0,0,1-4.1,0V419.751c-.252-2.436,4.064-2.436,3.812,0v1.667a7.436,7.436,0,0,1,6.741-3.718A7.082,7.082,0,0,1,267.391,419.815Z" transform="translate(-172.311 -411.098)" fill="#00ade6"/>
    <path id="Caminho_16" data-name="Caminho 16" d="M340.014,405.817a8.092,8.092,0,0,1,2.079,5.961v9.134a2.049,2.049,0,0,1-4.1,0V413.06c0-3.782-1.89-5.672-4.6-5.672-2.961,0-5.072,1.891-5.1,5.7v7.82a2.048,2.048,0,0,1-4.1,0V399.055a2.05,2.05,0,0,1,4.1,0v8.076a6.993,6.993,0,0,1,6.458-3.429A7.082,7.082,0,0,1,340.014,405.817Z" transform="translate(-222.064 -397.1)" fill="#00ade6"/>
    <path id="Caminho_17" data-name="Caminho 17" d="M409.99,420.425a7.839,7.839,0,0,1,2.772,5.865,1.665,1.665,0,0,1-1.8,1.859H397.39a5.916,5.916,0,0,0,6.237,5.608,7.322,7.322,0,0,0,2.268-.385,6.7,6.7,0,0,0,2.835-1.795,1.982,1.982,0,0,1,1.2-.481,1.578,1.578,0,0,1,1.669,1.6,2.26,2.26,0,0,1-.85,1.57,9.783,9.783,0,0,1-7.4,2.98,10.12,10.12,0,0,1-7.277-2.756,9.254,9.254,0,0,1-2.867-6.858,9.018,9.018,0,0,1,2.961-6.89,10.168,10.168,0,0,1,7.277-2.852A9.039,9.039,0,0,1,409.99,420.425Zm-1.165,5.16a5.687,5.687,0,0,0-5.481-4.711,5.888,5.888,0,0,0-5.922,4.743h11.4Z" transform="translate(-269.328 -411.227)" fill="#00ade6"/>
    <path id="Caminho_18" data-name="Caminho 18" d="M480.823,419.656a2.127,2.127,0,0,1,1.071,1.763,1.839,1.839,0,0,1-1.89,1.859,2.3,2.3,0,0,1-1.26-.481,6.377,6.377,0,0,0-3.938-1.346,5.858,5.858,0,0,0-4.379,1.763,5.659,5.659,0,0,0-1.764,4.262,5.852,5.852,0,0,0,1.764,4.327,6.059,6.059,0,0,0,4.379,1.7,6.222,6.222,0,0,0,4.19-1.538,2.305,2.305,0,0,1,1.229-.481,1.76,1.76,0,0,1,1.827,1.827,2.152,2.152,0,0,1-.851,1.6,9.739,9.739,0,0,1-6.458,2.243,10.12,10.12,0,0,1-7.277-2.756,9.254,9.254,0,0,1-2.867-6.858,9.017,9.017,0,0,1,2.961-6.89,10.264,10.264,0,0,1,7.34-2.852A9.3,9.3,0,0,1,480.823,419.656Z" transform="translate(-318.236 -411.164)" fill="#00ade6"/>
    <path id="Caminho_19" data-name="Caminho 19" d="M542.59,420.425a7.839,7.839,0,0,1,2.772,5.865,1.665,1.665,0,0,1-1.8,1.859H529.99a5.916,5.916,0,0,0,6.237,5.608,7.322,7.322,0,0,0,2.268-.385,6.7,6.7,0,0,0,2.835-1.795,1.981,1.981,0,0,1,1.2-.481,1.578,1.578,0,0,1,1.67,1.6,2.26,2.26,0,0,1-.851,1.57,9.783,9.783,0,0,1-7.4,2.98,10.121,10.121,0,0,1-7.277-2.756,9.254,9.254,0,0,1-2.867-6.858,9.017,9.017,0,0,1,2.961-6.89,10.168,10.168,0,0,1,7.277-2.852A9.04,9.04,0,0,1,542.59,420.425Zm-1.134,5.16a5.688,5.688,0,0,0-5.481-4.711,5.889,5.889,0,0,0-5.922,4.743h11.4Z" transform="translate(-360.157 -411.227)" fill="#00ade6"/>
    <path id="Caminho_20" data-name="Caminho 20" d="M596.4,462.469a2.785,2.785,0,0,1,3.843,0,2.644,2.644,0,0,1,0,3.75,2.785,2.785,0,0,1-3.843,0A2.644,2.644,0,0,1,596.4,462.469Z" transform="translate(-407.986 -440.997)" fill="#9c3593"/>
    <path id="Caminho_21" data-name="Caminho 21" d="M614.279,418.3a2.083,2.083,0,0,1,2.016,1.57l5.135,12.21,5.135-12.306a2.015,2.015,0,0,1,2.016-1.474,1.919,1.919,0,0,1,1.953,1.891,2.373,2.373,0,0,1-.221.993l-6.174,14a2.895,2.895,0,0,1-5.576,0l-6.111-13.845a2.1,2.1,0,0,1-.252-1.058A1.936,1.936,0,0,1,614.279,418.3Z" transform="translate(-419.34 -411.506)" fill="#9c3593"/>
    <path id="Caminho_22" data-name="Caminho 22" d="M690.923,419.656a2.127,2.127,0,0,1,1.071,1.763,1.839,1.839,0,0,1-1.89,1.859,2.3,2.3,0,0,1-1.26-.481,6.377,6.377,0,0,0-3.938-1.346,5.858,5.858,0,0,0-4.379,1.763,5.659,5.659,0,0,0-1.764,4.262,5.852,5.852,0,0,0,1.764,4.327,6.059,6.059,0,0,0,4.379,1.7,6.223,6.223,0,0,0,4.19-1.538,2.3,2.3,0,0,1,1.229-.481,1.76,1.76,0,0,1,1.827,1.827,2.152,2.152,0,0,1-.85,1.6,9.739,9.739,0,0,1-6.458,2.243,10.12,10.12,0,0,1-7.277-2.756,9.254,9.254,0,0,1-2.867-6.858,9.018,9.018,0,0,1,2.961-6.89A10.264,10.264,0,0,1,685,417.8,9.3,9.3,0,0,1,690.923,419.656Z" transform="translate(-462.152 -411.164)" fill="#9c3593"/>
  </g>
  <path id="Caminho_3" data-name="Caminho 3" d="M235.344,124.771c-.218-.673-.523-.943-1.053-.949a.761.761,0,0,0-.517.176.216.216,0,0,1-.324-.013,6.355,6.355,0,0,0-1.937-1.163c-.137-.05-.162-.1-.1-.239.754-1.66,1.514-3.319,2.255-4.979.125-.283.268-.157.4-.063a1.792,1.792,0,0,0,1.987.163,5.082,5.082,0,0,1,.617-.207c.673-.239,1.345-.478,2.018-.71a1.608,1.608,0,0,1,1.4.094,13.4,13.4,0,0,1-2.236.918,1.623,1.623,0,0,0-.9.679c-.305.509-.679.974-1.021,1.452-.442.616-.293,1.075.436,1.295a1.309,1.309,0,0,0,1.1-.126,4.706,4.706,0,0,0,1.271-1.087.59.59,0,0,1,.523-.264c.424.006.847-.019,1.271-.05a.577.577,0,0,1,.486.2c1.339,1.326,2.585,2.741,3.911,4.08a2.116,2.116,0,0,1,.268.346.646.646,0,0,1,.012.861.781.781,0,0,1-1.009.195,4.034,4.034,0,0,1-.959-.886c-.492-.522-.972-1.056-1.464-1.578-.069-.075-.162-.22-.274-.1-.093.094.025.189.093.264.536.585,1.071,1.163,1.607,1.748a4.168,4.168,0,0,1,.336.409.745.745,0,0,1,.044.9.844.844,0,0,1-.965.314,1.282,1.282,0,0,1-.486-.327c-.461-.465-.928-.924-1.4-1.389-.069-.069-.156-.189-.255-.094-.125.113,0,.207.075.283.461.465.928.924,1.389,1.389a.553.553,0,0,1,.168.622.642.642,0,0,1-.523.478.909.909,0,0,1-.7-.27c-.511-.478-1.015-.955-1.526-1.427-.075-.069-.162-.22-.28-.1s.05.195.118.264c.448.415.909.823,1.358,1.245.262.245.237.459-.075.635a.7.7,0,0,1-.623.05c-.187-.075-.274-.151-.2-.39a.716.716,0,0,0-.841-1.012c-.131.013-.2.006-.2-.145,0-.666-.629-1.006-1.308-.779-.1.031-.162.082-.224-.075A1.15,1.15,0,0,0,235.344,124.771Z" transform="translate(-174.292 -106.368)" fill="#9b3592"/>
  <path id="Caminho_4" data-name="Caminho 4" d="M184,109.341c.442.823.835,1.578,1.3,2.288a11.5,11.5,0,0,0,6.322,4.922,11.934,11.934,0,0,0,3.88.522,9.761,9.761,0,0,0,9.224-7.606c.05-.233.012-.251-.193-.2-.629.138-.623.132-.76-.509q-.561-2.716-1.146-5.419c-.05-.233-.025-.321.224-.39.847-.214,1.825-.465,2.666-.7.156-.044.125-.069.2.132a15.042,15.042,0,0,1,.872,3.074,12.8,12.8,0,0,1,.056,3.086,11.431,11.431,0,0,1-18.567,7.738,10.861,10.861,0,0,1-4-6.519A3.08,3.08,0,0,1,184,109.341Z" transform="translate(-129.862 -92.818)" fill="#00ace5"/>
  <path id="Caminho_5" data-name="Caminho 5" d="M310.463,123a8.007,8.007,0,0,1,1.937.321,5.652,5.652,0,0,0,2.273.006c.461-.063.915-.145,1.37-.214.137-.019.224.013.255.182.343,1.666.691,3.332,1.059,4.991.056.264-.044.321-.249.346a2.685,2.685,0,0,0-1.7.786c-.536.534-.573.515-1.09-.006-1.239-1.263-2.423-2.577-3.675-3.828a.794.794,0,0,0-.7-.283c-.523.057-1.053-.006-1.582.063a.419.419,0,0,0-.305.176,5.005,5.005,0,0,1-1.252,1.157,1.109,1.109,0,0,1-1.09.094c-.336-.138-.4-.327-.193-.629s.442-.6.66-.905a6.058,6.058,0,0,0,.38-.572,1.42,1.42,0,0,1,.8-.647,14.837,14.837,0,0,0,1.95-.779A2.991,2.991,0,0,1,310.463,123Z" transform="translate(-243.706 -112.298)" fill="#00ace5"/>
  <path id="Caminho_6" data-name="Caminho 6" d="M311.812,260.379a.963.963,0,0,1-.5-.075.607.607,0,0,1-.311-1.031c.33-.434.66-.9,1.314-.842a.587.587,0,0,1,.542.346.649.649,0,0,1-.025.729q-.271.321-.523.66A.448.448,0,0,1,311.812,260.379Z" transform="translate(-248.78 -239.21)" fill="#00ace5"/>
  <path id="Caminho_7" data-name="Caminho 7" d="M286,247.488a1.145,1.145,0,0,1-1.059-.874.363.363,0,0,1,.075-.3c.355-.352.685-.761,1.258-.735a1.013,1.013,0,0,1,.436.132.6.6,0,0,1,.243,1.012A1.732,1.732,0,0,1,286,247.488Z" transform="translate(-224.517 -227.175)" fill="#00ace5"/>
  <path id="Caminho_8" data-name="Caminho 8" d="M265.9,233.828a1.105,1.105,0,0,1-.853.823.98.98,0,0,1-.847-.773.93.93,0,0,1,.872-.779A.851.851,0,0,1,265.9,233.828Z" transform="translate(-205.067 -215.476)" fill="#00ace5"/>
  <path id="Caminho_9" data-name="Caminho 9" d="M337.249,274.333a1,1,0,0,1-.573.811.872.872,0,0,1-.928-.163c-.168-.126-.249-.27-.062-.459.218-.22.411-.465.629-.685a.513.513,0,0,1,.629-.082C337.168,273.836,337.261,274.013,337.249,274.333Z" transform="translate(-271.999 -253.511)" fill="#00ade5"/>
  <path id="Caminho_10" data-name="Caminho 10" d="M202.349,5.136a4.207,4.207,0,0,0-.28-.4A11.4,11.4,0,0,0,195.423.321C194.875.189,194.315.107,193.76,0H191.83c-.037.069-.106.057-.162.069a13.468,13.468,0,0,0-1.582.289,11.582,11.582,0,0,0-8.707,11.918c.006.176-.012.214.125.27.735.3,1.563.679,2.3,1,.125.057.2.075.274-.094q1.224-2.791,2.479-5.563c.075-.17.05-.226-.118-.3-.592-.245-1.177-.515-1.769-.754-.218-.088-.255-.176-.125-.383a9.138,9.138,0,0,1,2.167-2.477,10.9,10.9,0,0,1,10.327-1.942,13.383,13.383,0,0,1,4.939,2.854,4.1,4.1,0,0,1,.561.541A2.543,2.543,0,0,0,202.349,5.136Z" transform="translate(-127.389 2.97)" fill="#9b3592"/>
</svg>
