<?xml version="1.0" encoding="utf-8"?>
<!-- Generator: Adobe Illustrator 26.0.3, SVG Export Plug-In . SVG Version: 6.00 Build 0)  -->
<svg version="1.1" id="Camada_1" xmlns="http://www.w3.org/2000/svg" xmlns:xlink="http://www.w3.org/1999/xlink" x="0px" y="0px"
	 viewBox="0 0 730 478.2" style="enable-background:new 0 0 730 478.2;" xml:space="preserve">
<style type="text/css">
	.st0{fill:#9B3592;}
	.st1{fill:#00ACE5;}
	.st2{fill:#00ADE5;}
	.st3{fill:#9C3593;}
	.st4{fill:#00ADE6;}
</style>
<g>
	<g>
		<path class="st0" d="M295,245.5c-3.5-10.7-8.4-15-16.9-15.1c-3.2-0.1-5.9,0.9-8.3,2.8c-1.9,1.4-3.3,1.5-5.2-0.2
			c-9.2-8.1-19.7-14.1-31.1-18.5c-2.2-0.8-2.6-1.6-1.6-3.8c12.1-26.4,24.3-52.8,36.2-79.2c2-4.5,4.3-2.5,6.4-1
			c10.1,7.5,20.7,7.9,31.9,2.6c3.1-1.5,6.6-2.2,9.9-3.3c10.8-3.8,21.6-7.6,32.4-11.3c7.5-2.6,14.9-2.7,22.4,1.5
			c-11.6,6.4-23.8,10.5-35.9,14.6c-6.1,2.1-11.2,5.4-14.5,10.8c-4.9,8.1-10.9,15.5-16.4,23.1c-7.1,9.8-4.7,17.1,7,20.6
			c6.2,1.8,12.1,1.4,17.7-2c7.7-4.7,14.8-10.2,20.4-17.3c2.2-2.8,4.6-4.3,8.4-4.2c6.8,0.1,13.6-0.3,20.4-0.8
			c3.3-0.2,5.5,0.9,7.8,3.2c21.5,21.1,41.5,43.6,62.8,64.9c1.6,1.6,3,3.5,4.3,5.5c3.6,5.6,3.6,9.9,0.2,13.7
			c-4.5,5-10.5,6.2-16.2,3.1c-6.3-3.4-10.6-9-15.4-14.1c-7.9-8.3-15.6-16.8-23.5-25.1c-1.1-1.2-2.6-3.5-4.4-1.6
			c-1.5,1.5,0.4,3,1.5,4.2c8.6,9.3,17.2,18.5,25.8,27.8c1.9,2.1,3.8,4.2,5.4,6.5c3.5,4.8,3.7,10.1,0.7,14.3c-3.6,5-9.8,6.9-15.5,5
			c-3.1-1.1-5.5-2.9-7.8-5.2c-7.4-7.4-14.9-14.7-22.4-22.1c-1.1-1.1-2.5-3-4.1-1.5c-2,1.8,0,3.3,1.2,4.5
			c7.4,7.4,14.9,14.7,22.3,22.1c2.8,2.8,4.2,6,2.7,9.9c-1.5,4-4,7.1-8.4,7.6c-4.3,0.4-8.1-1.4-11.3-4.3
			c-8.2-7.6-16.3-15.2-24.5-22.7c-1.2-1.1-2.6-3.5-4.5-1.6c-1.9,2,0.8,3.1,1.9,4.2c7.2,6.6,14.6,13.1,21.8,19.8
			c4.2,3.9,3.8,7.3-1.2,10.1c-3.2,1.8-6.5,2.1-10,0.8c-3-1.2-4.4-2.4-3.2-6.2c3.3-10.5-2.6-17.4-13.5-16.1c-2.1,0.2-3.2,0.1-3.2-2.3
			c0-10.6-10.1-16-21-12.4c-1.6,0.5-2.6,1.3-3.6-1.2C318.2,243.3,307.1,239.4,295,245.5z"/>
		<path class="st1" d="M184,215.6c7.1,13.1,13.4,25.1,20.9,36.4c25,37.6,57.8,65,101.5,78.3c20.3,6.2,41.1,8.9,62.3,8.3
			c72.9-2.2,132.5-53.2,148.1-121c0.8-3.7,0.2-4-3.1-3.2c-10.1,2.2-10,2.1-12.2-8.1c-6-28.8-12.1-57.5-18.4-86.2
			c-0.8-3.7-0.4-5.1,3.6-6.2c13.6-3.4,29.3-7.4,42.8-11.2c2.5-0.7,2-1.1,3.2,2.1c5.9,16,11.6,31.9,14,48.9
			c2.3,16.4,2.6,32.7,0.9,49.1c-3.1,30.4-13.5,58.2-30.8,83.3c-28.8,41.7-68.2,68-117.9,77.2c-55.1,10.2-105.4-2.4-149.4-37.4
			c-34.8-27.7-55.1-61.1-64.2-103.7C185.1,221.7,184.4,218.6,184,215.6z"/>
		<path class="st1" d="M386.6,123c11.1,0.3,21.2,2.4,31.1,5.1c12.3,3.3,24.3,1.7,36.5,0.1c7.4-1,14.7-2.3,22-3.4
			c2.2-0.3,3.6,0.2,4.1,2.9c5.5,26.5,11.1,53,17,79.4c0.9,4.2-0.7,5.1-4,5.5c-10.6,1-19.5,4.9-27.3,12.5c-8.6,8.5-9.2,8.2-17.5-0.1
			c-19.9-20.1-38.9-41-59-60.9c-3.3-3.2-6.3-5-11.2-4.5c-8.4,0.9-16.9-0.1-25.4,1c-2.1,0.3-3.5,1-4.9,2.8
			c-5.6,7.3-12.4,13.4-20.1,18.4c-5.6,3.6-11.4,4-17.5,1.5c-5.4-2.2-6.4-5.2-3.1-10c3.4-4.9,7.1-9.6,10.6-14.4
			c2.1-2.9,4.3-5.9,6.1-9.1c2.9-5.1,7.1-8.2,12.8-10.3c10.5-3.8,21.3-7.1,31.3-12.4C374.1,123.8,380.8,123.7,386.6,123z"/>
		<path class="st1" d="M326.8,289.5c-3,0.5-5.6-0.3-8.1-1.2c-8.1-3-10.3-9.5-5-16.4c5.3-6.9,10.6-14.3,21.1-13.4
			c4,0.3,7.1,1.9,8.7,5.5c1.7,3.9,2.7,7.8-0.4,11.6c-2.9,3.4-5.7,6.9-8.4,10.5C332.6,288.8,330.1,290.4,326.8,289.5z"/>
		<path class="st1" d="M302,275.9c-8.2-0.1-16.2-7.3-17-13.9c-0.2-1.8,0.1-3.6,1.2-4.7c5.7-5.6,11-12.1,20.2-11.7
			c2.6,0.1,4.9,1,7,2.1c7.4,3.9,9,9.7,3.9,16.1C312.9,269.3,308.3,274.9,302,275.9z"/>
		<path class="st1" d="M291.5,244.7c0,5.1-8.4,13.1-13.7,13.1c-5.9,0-13.6-7-13.6-12.3c0-5.9,7.5-12.5,14-12.4
			C284.9,233.2,291.5,239,291.5,244.7z"/>
		<path class="st2" d="M362.4,284c-0.6,4.9-3.2,10.1-9.2,12.9c-5.4,2.5-10.4,0.7-14.9-2.6c-2.7-2-4-4.3-1-7.3
			c3.5-3.5,6.6-7.4,10.1-10.9c2.9-2.9,6.5-3,10.1-1.3C361.1,276.1,362.6,278.9,362.4,284z"/>
		<path class="st0" d="M518.3,81.7c-1.6-2.7-4.2-5.9-4.5-6.3c-27.1-36.1-62.7-59.8-106.7-70.3C398.3,3,389.3,1.7,380.4,0
			c-10.3,0-20.6,0-31,0c-0.6,1.1-1.7,0.9-2.6,1.1c-8.5,1.2-17.1,2.4-25.4,4.6c-86.8,22.2-144.2,100.1-139.8,189.6
			c0.1,2.8-0.2,3.4,2,4.3c11.8,4.8,25.1,10.8,36.9,15.9c2,0.9,3.2,1.2,4.4-1.5c13.1-29.6,26.4-59.1,39.8-88.5
			c1.2-2.7,0.8-3.6-1.9-4.7c-9.5-3.9-18.9-8.2-28.4-12c-3.5-1.4-4.1-2.8-2-6.1c9.5-15,20.6-28.7,34.8-39.4
			C317.3,25.4,372.5,14,433,32.4c29.8,9,55.9,25,79.3,45.4c2.2,1.6,7,6.1,9,8.6C520,83.9,518.6,82.2,518.3,81.7z"/>
	</g>
	<g>
		<path class="st3" d="M0,423.7c-0.7-7.1,12.3-7.1,11.6,0l0.2,7.3c3.9-8.5,10.9-13.3,19.4-13.3c3.9,0,6.8,2.6,6.8,6.2
			c0,3.7-2.8,6.5-6.8,6.5c-11.4,0-18.2,7-18.2,20.6v20.3c0,3.6-2.6,6.2-6.5,6.2c-3.8,0-6.5-2.6-6.5-6.2L0,423.7L0,423.7z"/>
		<path class="st3" d="M94.3,425.8c5.8,5.3,8.8,11.4,8.8,18.3c0,3.6-2,5.8-5.7,5.8H54.3c0.6,10.4,8.9,17.5,19.8,17.5
			c2.6,0,5-0.5,7.2-1.2c4.6-1.7,6-2.8,9-5.6c1.3-1,2.6-1.5,3.8-1.5c3.2,0,5.3,2.2,5.3,5c0,1.7-0.9,3.3-2.7,4.9
			c-6,6.2-13.9,9.3-23.5,9.3c-9.2,0-16.9-2.8-23.1-8.6c-6-5.8-9.1-12.9-9.1-21.4s3.1-15.8,9.4-21.5c6.3-5.9,14-8.9,23.1-8.9
			C81.5,417.7,88.5,420.5,94.3,425.8z M90.6,441.9c-0.7-4.2-2.7-7.6-6-10.4s-7.1-4.3-11.4-4.3c-9.5,0-17,6.1-18.8,14.8H90.6z"/>
		<path class="st4" d="M163.9,423.6c2.2,1.5,3.4,3.3,3.4,5.5c0,3.3-2.6,5.8-6,5.8c-1.2,0-2.5-0.5-4-1.5c-3.8-2.8-7.9-4.2-12.6-4.2
			c-5.6,0-10.2,1.8-13.9,5.5c-3.7,3.5-5.6,7.9-5.6,13.3s1.9,9.9,5.6,13.5c3.7,3.5,8.3,5.3,13.9,5.3c5.1,0,9.5-1.6,13.3-4.8
			c1.5-1,2.8-1.5,3.9-1.5c3.4,0,5.8,2.4,5.8,5.7c0,1.9-0.9,3.5-2.7,5c-5.6,4.6-12.4,7-20.5,7c-9.2,0-16.9-2.8-23.1-8.6
			c-6-5.8-9.1-12.9-9.1-21.4s3.1-15.8,9.4-21.5c6.3-5.9,14.1-8.9,23.3-8.9C152.4,417.7,158.7,419.7,163.9,423.6z"/>
		<path class="st4" d="M173.6,448.1c0-8.5,3.1-15.8,9.4-21.5c6.3-5.9,14.1-8.9,23.3-8.9s16.9,2.8,23,8.6c6.2,5.7,9.2,12.8,9.2,21.3
			c0,8.5-3.2,15.8-9.5,21.7c-6.3,5.9-14,8.9-23.2,8.9s-16.9-2.8-23.1-8.6C176.7,463.8,173.6,456.6,173.6,448.1z M192.2,461.4
			c3.7,3.5,8.3,5.3,13.9,5.3s10.2-1.8,13.9-5.3c3.7-3.6,5.6-8.2,5.6-13.5s-1.9-9.8-5.6-13.3c-3.7-3.6-8.3-5.5-13.9-5.5
			s-10.2,1.8-13.9,5.5c-3.7,3.5-5.6,7.9-5.6,13.3S188.6,457.8,192.2,461.4z"/>
		<path class="st4" d="M301.8,424.3c4.4,4.4,6.6,10.5,6.6,18.6v28.5c0,3.6-2.6,6.2-6.5,6.2c-3.8,0-6.5-2.6-6.5-6.2v-24.5
			c0-11.8-6-17.7-14.6-17.7c-9.5,0-16.2,6.1-16.2,18.8v23.4c0,3.6-2.6,6.2-6.5,6.2c-3.8,0-6.5-2.6-6.5-6.2v-47.3
			c-0.8-7.6,12.9-7.6,12.1,0v5.2c4.3-7.6,12.3-11.6,21.4-11.6C291.8,417.7,297.4,419.9,301.8,424.3z"/>
		<path class="st4" d="M374.4,424.3c4.4,4.4,6.6,10.5,6.6,18.6v28.5c0,3.6-2.6,6.2-6.5,6.2c-3.8,0-6.5-2.6-6.5-6.2v-24.5
			c0-11.8-6-17.7-14.6-17.7c-9.4,0-16.1,5.9-16.2,17.8v24.4c0,3.6-2.6,6.2-6.5,6.2c-3.8,0-6.5-2.6-6.5-6.2v-68.2
			c0-3.6,2.7-6.1,6.5-6.1c3.9,0,6.5,2.5,6.5,6.1v25.2c4.4-7.1,11.1-10.7,20.5-10.7C364.4,417.7,370,419.9,374.4,424.3z"/>
		<path class="st4" d="M446.5,425.8c5.8,5.3,8.8,11.4,8.8,18.3c0,3.6-2,5.8-5.7,5.8h-43.1c0.6,10.4,8.9,17.5,19.8,17.5
			c2.6,0,5-0.5,7.2-1.2c4.6-1.7,6-2.8,9-5.6c1.3-1,2.6-1.5,3.8-1.5c3.2,0,5.3,2.2,5.3,5c0,1.7-1,3.3-2.7,4.9
			c-6,6.2-13.9,9.3-23.5,9.3c-9.2,0-16.9-2.8-23.1-8.6c-6-5.8-9.1-12.9-9.1-21.4s3.1-15.8,9.4-21.5c6.3-5.9,14-8.9,23.1-8.9
			C433.7,417.7,440.7,420.5,446.5,425.8z M442.8,441.9c-0.7-4.2-2.7-7.6-6-10.4s-7.1-4.3-11.4-4.3c-9.5,0-17,6.1-18.8,14.8H442.8z"
			/>
		<path class="st4" d="M516.1,423.6c2.2,1.5,3.4,3.3,3.4,5.5c0,3.3-2.6,5.8-6,5.8c-1.2,0-2.5-0.5-4-1.5c-3.8-2.8-7.9-4.2-12.5-4.2
			c-5.6,0-10.2,1.8-13.9,5.5c-3.7,3.5-5.6,7.9-5.6,13.3s1.9,9.9,5.6,13.5c3.7,3.5,8.3,5.3,13.9,5.3c5.1,0,9.5-1.6,13.3-4.8
			c1.5-1,2.8-1.5,3.9-1.5c3.4,0,5.8,2.4,5.8,5.7c0,1.9-1,3.5-2.7,5c-5.6,4.6-12.4,7-20.5,7c-9.2,0-16.9-2.8-23.1-8.6
			c-6-5.8-9.1-12.9-9.1-21.4s3.1-15.8,9.4-21.5c6.3-5.9,14.1-8.9,23.3-8.9C504.6,417.7,510.9,419.7,516.1,423.6z"/>
		<path class="st4" d="M579.1,425.8c5.8,5.3,8.8,11.4,8.8,18.3c0,3.6-2,5.8-5.7,5.8h-43.1c0.6,10.4,8.9,17.5,19.8,17.5
			c2.6,0,5-0.5,7.2-1.2c4.6-1.7,6-2.8,9-5.6c1.3-1,2.6-1.5,3.8-1.5c3.2,0,5.3,2.2,5.3,5c0,1.7-1,3.3-2.7,4.9
			c-6,6.2-13.9,9.3-23.5,9.3c-9.2,0-16.9-2.8-23.1-8.6c-6-5.8-9.1-12.9-9.1-21.4s3.1-15.8,9.4-21.5c6.3-5.9,14-8.9,23.1-8.9
			C566.3,417.7,573.3,420.5,579.1,425.8z M575.5,441.9c-0.7-4.2-2.7-7.6-6-10.4s-7.1-4.3-11.4-4.3c-9.5,0-17,6.1-18.8,14.8H575.5z"
			/>
		<path class="st3" d="M598.1,464.1c3.4-3.2,8.9-3.2,12.2,0s3.3,8.4,0,11.7c-3.3,3.2-8.8,3.2-12.2,0
			C594.8,472.5,594.8,467.3,598.1,464.1z"/>
		<path class="st3" d="M618.8,418.3c3,0,5.1,1.6,6.4,4.9l16.3,38.1l16.3-38.4c1.2-3.1,3.3-4.6,6.4-4.6c3.4,0,6.2,2.6,6.2,5.9
			c0,1-0.2,2-0.7,3.1L650.1,471c-1.9,4.4-4.9,6.6-8.9,6.6c-3.9,0-6.9-2.2-8.8-6.6L613,427.8c-0.6-1-0.8-2.2-0.8-3.3
			C612.2,420.8,614.9,418.3,618.8,418.3z"/>
		<path class="st3" d="M726.2,423.6c2.2,1.5,3.4,3.3,3.4,5.5c0,3.3-2.6,5.8-6,5.8c-1.2,0-2.5-0.5-4-1.5c-3.8-2.8-7.9-4.2-12.5-4.2
			c-5.6,0-10.2,1.8-13.9,5.5c-3.7,3.5-5.6,7.9-5.6,13.3s1.9,9.9,5.6,13.5c3.7,3.5,8.3,5.3,13.9,5.3c5.1,0,9.5-1.6,13.3-4.8
			c1.5-1,2.8-1.5,3.9-1.5c3.4,0,5.8,2.4,5.8,5.7c0,1.9-1,3.5-2.7,5c-5.6,4.6-12.4,7-20.5,7c-9.2,0-16.9-2.8-23.1-8.6
			c-6-5.8-9.1-12.9-9.1-21.4s3.1-15.8,9.4-21.5c6.3-5.9,14.1-8.9,23.3-8.9C714.7,417.7,721,419.7,726.2,423.6z"/>
	</g>
</g>
</svg>
